<?xml version="1.0" encoding="UTF-8" standalone="no"?><!DOCTYPE svg PUBLIC "-//W3C//DTD SVG 1.1//EN" "http://www.w3.org/Graphics/SVG/1.1/DTD/svg11.dtd"><svg width="100%" height="100%" viewBox="0 0 2309 2890" version="1.1" xmlns="http://www.w3.org/2000/svg" xmlns:xlink="http://www.w3.org/1999/xlink" xml:space="preserve" xmlns:serif="http://www.serif.com/" style="fill-rule:evenodd;clip-rule:evenodd;stroke-linejoin:round;stroke-miterlimit:2;"><g><path d="M1230.01,2889.45l-37.19,-0c0,-0 -76.475,-206.041 -49.825,-335.869c26.65,-129.828 18.185,-287.537 15.862,-311.666c-2.323,-24.129 -8.089,-113.824 -8.126,-117.525c-0.037,-3.701 -77.126,-219.147 -147.099,-313.358c-69.972,-94.211 -95.663,-315.243 -80.834,-542.081c14.83,-226.837 -60.014,-359.272 -68.662,-383.778c-8.648,-24.505 -106.851,-251.775 -121.801,-251.375c-14.951,0.4 -119.908,-260.075 -91.49,-254.225c28.418,5.85 30.518,26.478 30.518,26.478c-14.413,-21.208 16.978,-169.787 34.109,-153.777c0,0 2.631,-0.346 10.579,4.967c2.047,1.368 -8.399,-86.225 19.294,-86.616c1.129,-5.968 -0.441,-9.432 5.391,-13.677c9.552,6.912 35.582,36.055 39.17,49.376c-0.663,-26.525 5.541,-132.261 25.683,-130.132c3.141,-4.512 7.903,-27.846 11.765,-28.133c3.861,-0.287 59.368,47.357 62.031,105.089c3.195,-15.322 17.647,-141.353 72.505,-152.287c20.065,32.082 56.277,135.748 54.935,151.602c-1.343,15.855 10.59,57.789 7.47,100.081c7.002,-21.6 30.439,-75.754 43.708,-87.265c11.371,22.649 11.914,24.956 11.914,24.956c0,-0 3.241,-35.864 32.03,-44.389c28.788,-8.525 47.369,62.539 29.539,101.336c-17.831,38.798 -29.079,98.174 -39.586,102.013c-10.507,3.839 94.84,-108.02 105.426,-105.861c10.585,2.16 19.498,106.325 -12.358,135.984c8.988,20.969 31.923,107.445 -3.008,143.722c-34.93,36.276 16.904,-24.264 34.003,-22.671c17.099,1.593 21.521,-14.782 20.614,10.351c-0.908,25.133 -2.746,16.931 -4.089,20.941c7.068,-4.102 40.988,-18.16 47.612,-15.637c3.019,7.929 70.68,93.124 -315.591,372.103c-29.263,30.21 -24.466,44.024 -27.762,46.087c-3.295,2.063 34.754,513.744 24.587,543.678c-10.168,29.934 -14.284,222.636 160.842,483.432c58.634,153.922 76.483,149.258 67.024,487.175c-6.253,62.182 -39.332,147.567 -25.513,213.418c13.819,65.851 66.323,227.533 66.323,227.533Z" style="fill:#3e4d5c;"/><path d="M2147.49,1211.84c-0,0 149.1,-145.382 160.229,-231.764c-32.485,-10.631 -67.495,-32.868 -145.025,90.677c-6.369,-24.514 1.822,-122.074 -24.655,-154.21c-14.999,18.365 -25.248,59.126 -25.862,57.109l-11.721,-12.215c-0,0 -13.117,6.878 -11.36,39.895c-1.625,-18.832 -17.456,-190.13 -38.658,-189.767c-19.699,8.253 -63.694,23.888 -80.019,131.226c-8.436,-11.012 -19.719,-29.442 -31.906,-37.96c-13.69,9.516 -70.793,42.014 -28.152,145.053c-9.583,-5.541 -13.769,-11.03 -23.511,-9.6c-9.742,1.429 -26.751,23.756 -28.203,23.676c-0.7,-4.213 -12.95,-23.762 -13.4,-23.38c-0.45,0.382 -45.35,396.589 45.678,449.437c-20.02,75.627 -48.217,187.868 -48.217,187.868c-0,-0 -31.247,-178.046 -55.626,-204.464c-17.734,16.293 -44.797,45.467 29.185,271.457c-10.774,36.445 -87.215,251.722 -88.427,251.668c-4.344,-11.807 -42.091,-189.395 -54.556,-205.584c-13.248,16.717 -26.109,111.764 6.567,178.624c14.657,38.657 28.959,100.939 -8.747,136.391c-16.552,33.886 -40.658,90.09 -44.666,92.543c-2.441,-13.217 43.491,-115.458 26.401,-127.797c-15.523,8.03 -79.858,94.711 -78.245,134.417c1.612,39.705 -1.25,85.483 -1.25,85.483c0,0 -76.44,21.079 -78.173,74.706c-29.361,3.896 -123.273,79.894 -304.528,-125.533c-8.854,31.072 -5.798,83.654 -5.798,83.654c-0,-0 135.531,180.208 219.158,150.52c-24.632,-68.912 -12.964,-64.08 -33.703,-73.557c65.554,4.645 148.526,-21.9 149.403,-10.981c0.876,10.919 112.419,-46.649 174.321,-140.245c60.333,-93.597 -41.005,-4.064 -50.742,6.868c10.66,-26.723 40.053,-63.92 96.745,-67.287c152.71,-10.474 201.422,-102.883 210.101,-110.934c-2.787,-33.641 -49.781,-63.21 -263.984,84.937c25.85,-54.25 104.226,-205.776 101.909,-206.893c-2.317,-1.117 59.637,-38.584 126.721,-11.221c67.085,27.363 166.498,-42.067 165.43,-47.361c-17.106,-2.111 -170.954,-43.966 -291.584,32.624c17.201,-55.655 58.252,-171.397 62.51,-177.109c4.259,-5.712 174.046,-83.584 232.558,-190.545c-74.864,29.378 -60.853,37.201 -97.497,60.953c-36.645,23.752 -114.114,60.056 -114.898,60.675c10.084,-26.056 42.822,-108.95 41.272,-109.985c-1.549,-1.036 121.463,-0.04 234.925,-362.069" style="fill:#3e4d5c;"/><path d="M960.995,1425.94c-0,-0 159.772,-177.728 270.451,-182.374c-15.778,28.49 -27.416,47.067 -71.302,78.691c23.064,-2.188 150.797,-43.868 149.145,-42.977c-1.652,0.891 -64.553,-102.022 36.213,-189.535c-4.729,46.385 -22.896,140.664 -11.107,168.588c19.903,-11.298 101.276,-108.903 101.503,-110.481c0.226,-1.578 -23.744,-183.48 22.053,-227.779c10.633,38.88 19.747,169.801 2.341,201.72c13.026,-22.18 43.761,-92.234 43.947,-90.343c0.186,1.89 8.637,-177.419 53.172,-243.638c-2.521,-53.043 8.302,-235.065 46.183,-236.756c11.528,20.897 19.216,32.176 17.725,36.889l13.032,-16.192c-0,0 29.095,25.107 18.024,79.1c7.148,-3.026 66.445,-28.441 85.414,-23.723c4.675,6.642 3.265,10.384 2.183,11.537c6.341,-5.17 41.317,-26.716 52.967,-22.815c5.602,8.574 13.448,8.238 12.136,39.193c12.158,-3.405 123.443,-48.225 13.113,166.418c24.986,-17.043 75.077,-66.729 96.965,-68.117c7.079,10.264 15.94,46.211 -34.824,105.229c-50.763,59.017 -2.518,24.923 -196.706,193.337c29.004,-8.478 61.241,-17.262 65.896,-11.575c-1.501,8.765 -87.684,107.141 -254.187,106.2c-44.115,42.934 -105.831,117.241 -105.969,115.17c23.161,-2.811 136.396,-30.3 162.132,-27.071c-8.658,13.215 -27.932,58.883 -209.041,64.702c-54.717,23.635 -62.653,30.523 -101.298,37.894c-38.646,7.37 -87.349,88.858 -278.635,129.461c-0.692,-19.23 -1.526,-40.753 -1.526,-40.753Z" style="fill:#3e4d5c;"/><path d="M1195.73,2816.84c0,0 -159.772,-177.728 -270.452,-182.374c15.779,28.49 27.417,47.067 71.302,78.692c-23.063,-2.188 -150.796,-43.869 -149.144,-42.978c1.652,0.891 64.552,-102.022 -36.213,-189.534c4.728,46.385 22.895,140.664 11.107,168.588c-19.904,-11.299 -101.276,-108.904 -101.503,-110.482c-0.227,-1.578 23.744,-183.48 -22.054,-227.778c-10.632,38.88 -19.746,169.801 -2.34,201.72c-13.026,-22.181 -43.761,-92.235 -43.947,-90.344c-0.187,1.891 -8.638,-177.418 -53.173,-243.637c2.522,-53.044 -8.301,-235.065 -46.182,-236.756c-11.528,20.896 -19.217,32.175 -17.725,36.888l-13.032,-16.191c0,-0 -29.095,25.107 -18.024,79.099c-7.148,-3.026 -66.446,-28.44 -85.415,-23.723c-4.674,6.643 -3.264,10.385 -2.182,11.537c-6.341,-5.169 -41.318,-26.716 -52.967,-22.815c-5.602,8.574 -13.448,8.239 -12.136,39.194c-12.159,-3.406 -123.443,-48.226 -13.114,166.417c-24.985,-17.042 -75.076,-66.728 -96.964,-68.117c-7.079,10.265 -15.94,46.212 34.823,105.229c50.764,59.017 2.519,24.923 196.707,193.338c-29.004,-8.478 -61.241,-17.262 -65.896,-11.575c1.5,8.764 87.684,107.14 254.187,106.199c44.114,42.934 105.831,117.242 105.969,115.171c-23.162,-2.811 -136.396,-30.301 -162.132,-27.071c8.657,13.214 27.932,58.882 209.04,64.702c54.718,23.634 62.654,30.523 101.299,37.893c38.646,7.371 87.349,88.858 278.635,129.462c0.691,-19.231 1.526,-40.754 1.526,-40.754Z" style="fill:#3e4d5c;"/><path d="M936.143,1553.65c-0,0 -132.3,-131.763 -224.212,-154.346c22.571,53.372 105.154,123.604 124.956,140.226c-30.834,-14.201 -108.295,-43.595 -108.295,-43.595c-0,0 -135.614,-234.434 -168.327,-226.91c-12.899,30.641 40.981,109.725 86.143,189.619c-21.986,0.637 -47.741,-12.831 -47.741,-12.831c0,-0 -113.39,-205.691 -145.091,-200.687c4.626,33.625 14.208,122.271 63.356,183.624c-32.311,1.91 -88.476,-16.738 -92.867,-31.631c-4.391,-14.894 -31.79,-84.079 -31.79,-84.079c-0,-0 69.119,-234.103 52.112,-239.322c8.311,-25.034 44.568,-169.162 -23.647,-198.922c-23.082,25.281 -36.838,36.271 -36.838,36.271c0,-0 -12.684,-39.882 -24.561,-39.769c-7.416,-8.502 -9.119,-12.924 -13.036,-13.098c-4.995,3.519 -8.509,3.235 -9.137,3.685c-0.935,-3.089 -2.962,-17.727 -7.794,-18.024c-4.833,-0.296 4.479,-25.681 -0.716,-27.988c-5.194,-2.307 -4.981,0.44 -7.549,2.22c0.201,-5.45 -4.717,-39.58 -6.487,-40.808c-4.075,2.019 -32.993,3.665 -48.331,27.193c-11.777,-4.541 -7.554,-4.272 -25.987,-9.579c0.806,12.486 -7.895,54.827 -2.734,64.35c-6.712,-6.916 -37.062,-45.681 -75.487,-26.919c-38.424,18.762 -26.407,82.842 -26.351,87.068c-6.979,-1.11 -7.79,-1.84 -9.213,-2.405c-1.423,-0.566 14.688,63.624 59.106,122.23c-11.736,-7.983 -45.662,-29.942 -41.123,-16.354c-4.156,-7.531 -52.268,-71.091 -67.843,-75.464c-1.413,9.045 -1.983,16.834 -0.456,23.127c-4.932,-7.87 -23.653,-33.791 -32.058,-37.603c-7.412,8.613 -24.224,11.739 -22.775,58.131c-6.254,-1.563 -18.253,-4.887 -19.335,-4.965c1.651,10.359 -4.733,51.099 177.963,268.894c-36.613,-24.512 -30.995,-21.082 -42.634,-25.672c6.843,24.569 33.592,96.759 91.093,138.745c-16.171,6.78 -21.834,7.385 -28.239,5.67c13.372,17.626 110.995,48.453 131.33,55.633c20.334,7.18 72.23,26.936 88.636,15.554c16.407,-11.381 77.042,17.679 75.994,16.985c-22.336,-0.161 -118.684,-12.555 -178.805,45.794c39.926,15.243 142.018,-11.636 143.034,-11.734c13.751,6.604 102.945,23.668 110.292,14.466c16.061,-0.489 31.682,13.897 142.841,79.426c129.255,12.579 89.546,25.93 183.122,1.704c23.443,-2.686 44.149,14.315 42.312,14.331c-1.837,0.015 -2.831,-52.241 -2.831,-52.241Z" style="fill:#3e4d5c;"/><path d="M1206.46,2810.76c-0,0 132.299,-131.763 224.211,-154.346c-22.571,53.372 -105.153,123.604 -124.956,140.226c30.834,-14.201 108.295,-43.595 108.295,-43.595c0,0 135.614,-234.435 168.327,-226.91c12.899,30.641 -40.981,109.725 -86.143,189.619c21.986,0.637 47.741,-12.831 47.741,-12.831c-0,-0 113.39,-205.691 145.091,-200.687c-4.626,33.625 -14.208,122.271 -63.356,183.624c32.311,1.91 88.476,-16.738 92.867,-31.631c4.391,-14.894 31.79,-84.079 31.79,-84.079c0,-0 -69.118,-234.103 -52.111,-239.322c-8.312,-25.034 -44.569,-169.162 23.646,-198.922c23.082,25.281 36.838,36.27 36.838,36.27c0,0 12.684,-39.881 24.561,-39.768c7.416,-8.503 9.119,-12.924 13.037,-13.098c4.994,3.519 8.509,3.235 9.136,3.685c0.935,-3.089 2.962,-17.727 7.794,-18.024c4.833,-0.296 -4.479,-25.681 0.716,-27.988c5.194,-2.307 4.981,0.44 7.549,2.22c-0.201,-5.45 4.717,-39.58 6.487,-40.808c4.075,2.019 32.993,3.665 48.331,27.193c11.777,-4.541 7.554,-4.272 25.987,-9.579c-0.805,12.486 7.895,54.827 2.734,64.35c6.712,-6.916 37.062,-45.681 75.487,-26.919c38.424,18.762 26.408,82.842 26.351,87.068c6.979,-1.11 7.79,-1.84 9.213,-2.405c1.423,-0.566 -14.688,63.623 -59.106,122.23c11.736,-7.983 45.662,-29.942 41.123,-16.354c4.157,-7.531 52.268,-71.091 67.844,-75.464c1.412,9.045 1.983,16.834 0.455,23.127c4.933,-7.87 23.653,-33.791 32.058,-37.603c7.412,8.613 24.224,11.739 22.775,58.131c6.254,-1.563 18.253,-4.887 19.335,-4.965c-1.651,10.359 4.733,51.099 -177.963,268.894c36.613,-24.512 30.995,-21.082 42.634,-25.672c-6.843,24.569 -33.592,96.759 -91.093,138.745c16.171,6.78 21.834,7.385 28.239,5.67c-13.372,17.626 -110.995,48.453 -131.33,55.633c-20.334,7.18 -72.229,26.936 -88.636,15.554c-16.407,-11.381 -77.042,17.679 -75.993,16.985c22.335,-0.161 118.683,-12.555 178.804,45.794c-39.925,15.243 -142.018,-11.636 -143.034,-11.735c-13.751,6.605 -102.945,23.669 -110.292,14.466c-16.061,-0.488 -31.681,13.898 -142.84,79.427c-129.256,12.579 -89.547,25.93 -183.122,1.704c-23.444,-2.686 -44.15,14.315 -42.313,14.331c1.837,0.015 2.832,-52.241 2.832,-52.241Z" style="fill:#3e4d5c;"/><path d="M931.607,1172.08c2.213,9.323 -281.752,-113.336 -290.465,-202.427c60.393,9.631 246.579,17.606 290.465,202.427Z" style="fill:#3e4d5c;"/><path d="M937.958,1105.86c0,0 59.247,-192.099 129.867,-265.405c-1.101,42.686 29.135,152.543 -129.867,265.405Z" style="fill:#3e4d5c;"/><path d="M1158.51,2129.41c-0,0 -246.788,-68.924 -288.272,-264.961c55.432,33.331 256.208,113.774 288.272,264.961Z" style="fill:#3e4d5c;"/><path d="M1136.72,1999.22c0,0 -40.872,-241.508 20.391,-294.89c16.036,46.764 61.175,282.498 15.184,359.271c-45.99,76.772 -35.575,-64.381 -35.575,-64.381Z" style="fill:#3e4d5c;"/></g></svg>