<?xml version="1.0" encoding="UTF-8" standalone="no"?><!DOCTYPE svg PUBLIC "-//W3C//DTD SVG 1.1//EN" "http://www.w3.org/Graphics/SVG/1.1/DTD/svg11.dtd"><svg width="100%" height="100%" viewBox="0 0 482 482" version="1.1" xmlns="http://www.w3.org/2000/svg" xmlns:xlink="http://www.w3.org/1999/xlink" xml:space="preserve" xmlns:serif="http://www.serif.com/" style="fill-rule:evenodd;clip-rule:evenodd;stroke-linejoin:round;stroke-miterlimit:2;"><rect id="Artboard1" x="0" y="0" width="481.476" height="481.476" style="fill:none;"/><clipPath id="_clip1"><rect x="0" y="0" width="481.476" height="481.476"/></clipPath><g clip-path="url(#_clip1)"><g><rect x="-0" y="0" width="481.476" height="481.476" style="fill:#6c0010;"/><g><rect x="121.039" y="240.738" width="32.295" height="13.346" style="fill:#0e100d;"/><rect x="121.039" y="227.392" width="32.295" height="13.346" style="fill:#0e100d;"/><rect x="341.271" y="240.738" width="32.295" height="13.346" style="fill:#0e100d;"/><rect x="341.271" y="227.392" width="32.295" height="13.346" style="fill:#0e100d;"/><rect x="136.7" y="254.085" width="32.295" height="13.346" style="fill:#0e100d;"/><rect x="136.7" y="214.045" width="32.295" height="13.346" style="fill:#0e100d;"/><rect x="325.609" y="254.085" width="32.295" height="13.346" style="fill:#0e100d;"/><rect x="325.609" y="214.045" width="32.295" height="13.346" style="fill:#0e100d;"/><rect x="152.362" y="267.431" width="32.295" height="13.346" style="fill:#0e100d;"/><rect x="152.362" y="200.699" width="32.295" height="13.346" style="fill:#0e100d;"/><rect x="309.948" y="267.431" width="32.295" height="13.346" style="fill:#0e100d;"/><rect x="309.948" y="200.699" width="32.295" height="13.346" style="fill:#0e100d;"/><rect x="168.023" y="280.777" width="32.295" height="13.346" style="fill:#0e100d;"/><rect x="168.023" y="187.352" width="32.295" height="13.346" style="fill:#0e100d;"/><rect x="294.287" y="280.777" width="32.295" height="13.346" style="fill:#0e100d;"/><rect x="294.287" y="187.352" width="32.295" height="13.346" style="fill:#0e100d;"/><rect x="183.685" y="294.124" width="32.295" height="13.346" style="fill:#0e100d;"/><rect x="183.685" y="174.006" width="32.295" height="13.346" style="fill:#0e100d;"/><rect x="278.625" y="294.124" width="32.295" height="13.346" style="fill:#0e100d;"/><rect x="278.625" y="174.006" width="32.295" height="13.346" style="fill:#0e100d;"/><rect x="199.346" y="307.47" width="32.295" height="13.346" style="fill:#0e100d;"/><rect x="199.346" y="160.659" width="32.295" height="13.346" style="fill:#0e100d;"/><rect x="262.964" y="307.47" width="32.295" height="13.346" style="fill:#0e100d;"/><rect x="262.964" y="160.659" width="32.295" height="13.346" style="fill:#0e100d;"/><rect x="215.008" y="320.817" width="32.295" height="13.346" style="fill:#0e100d;"/><rect x="215.008" y="147.313" width="32.295" height="13.346" style="fill:#0e100d;"/><rect x="247.302" y="320.817" width="32.295" height="13.346" style="fill:#0e100d;"/><rect x="247.302" y="147.313" width="32.295" height="13.346" style="fill:#0e100d;"/></g><g><rect x="26.566" y="317.982" width="54.78" height="23.356" style="fill:#0e100d;"/><rect x="26.566" y="140.138" width="54.78" height="23.356" style="fill:#0e100d;"/><rect x="400.131" y="317.982" width="54.78" height="23.356" style="fill:#0e100d;"/><rect x="400.131" y="140.138" width="54.78" height="23.356" style="fill:#0e100d;"/><rect x="53.131" y="341.338" width="54.78" height="23.356" style="fill:#0e100d;"/><rect x="53.131" y="116.782" width="54.78" height="23.356" style="fill:#0e100d;"/><rect x="373.566" y="341.338" width="54.78" height="23.356" style="fill:#0e100d;"/><rect x="373.566" y="116.782" width="54.78" height="23.356" style="fill:#0e100d;"/><rect x="79.697" y="364.694" width="54.78" height="23.356" style="fill:#0e100d;"/><rect x="79.697" y="93.425" width="54.78" height="23.356" style="fill:#0e100d;"/><rect x="347" y="364.694" width="54.78" height="23.356" style="fill:#0e100d;"/><rect x="347" y="93.425" width="54.78" height="23.356" style="fill:#0e100d;"/><rect x="106.262" y="388.051" width="54.78" height="23.356" style="fill:#0e100d;"/><rect x="106.262" y="70.069" width="54.78" height="23.356" style="fill:#0e100d;"/><rect x="320.435" y="388.051" width="54.78" height="23.356" style="fill:#0e100d;"/><rect x="320.435" y="70.069" width="54.78" height="23.356" style="fill:#0e100d;"/><rect x="132.828" y="411.407" width="54.78" height="23.356" style="fill:#0e100d;"/><rect x="132.828" y="46.713" width="54.78" height="23.356" style="fill:#0e100d;"/><rect x="293.869" y="411.407" width="54.78" height="23.356" style="fill:#0e100d;"/><rect x="293.869" y="46.713" width="54.78" height="23.356" style="fill:#0e100d;"/><rect x="159.393" y="434.763" width="54.78" height="23.356" style="fill:#0e100d;"/><rect x="159.393" y="23.356" width="54.78" height="23.356" style="fill:#0e100d;"/><rect x="267.304" y="434.763" width="54.78" height="23.356" style="fill:#0e100d;"/><rect x="267.304" y="23.356" width="54.78" height="23.356" style="fill:#0e100d;"/><rect x="185.959" y="458.12" width="54.78" height="23.356" style="fill:#0e100d;"/><rect x="185.959" y="0" width="54.78" height="23.356" style="fill:#0e100d;"/><rect x="0" y="294.625" width="54.78" height="23.356" style="fill:#0e100d;"/><rect x="0" y="163.494" width="54.78" height="23.356" style="fill:#0e100d;"/><rect x="426.697" y="294.625" width="54.78" height="23.356" style="fill:#0e100d;"/><rect x="426.697" y="163.494" width="54.78" height="23.356" style="fill:#0e100d;"/><rect x="240.738" y="458.12" width="54.78" height="23.356" style="fill:#0e100d;"/><rect x="240.738" y="0" width="54.78" height="23.356" style="fill:#0e100d;"/></g><g><path d="M481.476,441.596l0,39.88l-36.949,0l36.949,-39.88Z"/><path d="M441.596,-0l39.88,-0l0,36.949l-39.88,-36.949Z"/><path d="M-0,39.88l-0,-39.88l36.949,0l-36.949,39.88Z"/><path d="M39.88,481.476l-39.88,0l0,-36.949l39.88,36.949Z"/></g><g><rect x="27.203" y="240.738" width="54.78" height="23.356" style="fill:#6d5b42;"/><rect x="27.203" y="217.382" width="54.78" height="23.356" style="fill:#6d5b42;"/><rect x="400.769" y="240.738" width="54.78" height="23.356" style="fill:#6d5b42;"/><rect x="400.769" y="217.382" width="54.78" height="23.356" style="fill:#6d5b42;"/><rect x="53.768" y="264.094" width="54.78" height="23.356" style="fill:#6d5b42;"/><rect x="53.768" y="194.025" width="54.78" height="23.356" style="fill:#6d5b42;"/><rect x="374.203" y="264.094" width="54.78" height="23.356" style="fill:#6d5b42;"/><rect x="374.203" y="194.025" width="54.78" height="23.356" style="fill:#6d5b42;"/><rect x="80.334" y="287.451" width="54.78" height="23.356" style="fill:#6d5b42;"/><rect x="80.334" y="170.669" width="54.78" height="23.356" style="fill:#6d5b42;"/><rect x="347.638" y="287.451" width="54.78" height="23.356" style="fill:#6d5b42;"/><rect x="347.638" y="170.669" width="54.78" height="23.356" style="fill:#6d5b42;"/><rect x="106.9" y="310.807" width="54.78" height="23.356" style="fill:#6d5b42;"/><rect x="106.9" y="147.313" width="54.78" height="23.356" style="fill:#6d5b42;"/><rect x="321.072" y="310.807" width="54.78" height="23.356" style="fill:#6d5b42;"/><rect x="321.072" y="147.313" width="54.78" height="23.356" style="fill:#6d5b42;"/><rect x="133.465" y="334.163" width="54.78" height="23.356" style="fill:#6d5b42;"/><rect x="133.465" y="123.956" width="54.78" height="23.356" style="fill:#6d5b42;"/><rect x="294.507" y="334.163" width="54.78" height="23.356" style="fill:#6d5b42;"/><rect x="294.507" y="123.956" width="54.78" height="23.356" style="fill:#6d5b42;"/><rect x="160.031" y="357.52" width="54.78" height="23.356" style="fill:#6d5b42;"/><rect x="160.031" y="100.6" width="54.78" height="23.356" style="fill:#6d5b42;"/><rect x="267.941" y="357.52" width="54.78" height="23.356" style="fill:#6d5b42;"/><rect x="267.941" y="100.6" width="54.78" height="23.356" style="fill:#6d5b42;"/><rect x="186.596" y="380.876" width="54.78" height="23.356" style="fill:#6d5b42;"/><rect x="186.596" y="77.244" width="54.78" height="23.356" style="fill:#6d5b42;"/><rect x="241.376" y="380.876" width="54.78" height="23.356" style="fill:#6d5b42;"/><rect x="241.376" y="77.244" width="54.78" height="23.356" style="fill:#6d5b42;"/></g></g></g></svg>