<?xml version="1.0" encoding="UTF-8" standalone="no"?><!DOCTYPE svg PUBLIC "-//W3C//DTD SVG 1.1//EN" "http://www.w3.org/Graphics/SVG/1.1/DTD/svg11.dtd"><svg width="100%" height="100%" viewBox="0 0 1825 773" version="1.1" xmlns="http://www.w3.org/2000/svg" xmlns:xlink="http://www.w3.org/1999/xlink" xml:space="preserve" xmlns:serif="http://www.serif.com/" style="fill-rule:evenodd;clip-rule:evenodd;stroke-linecap:round;stroke-linejoin:round;stroke-miterlimit:1.5;"><g id="puvu-logo-white"><g id="tule-white"><g><path d="M291.334,357.978l32.581,23.294c3.691,0.619 6.315,1.573 7.952,2.967c2.742,2.32 7.866,3.442 15.142,3.153c10.142,-0.404 35.142,6.332 41.957,11.14c9.779,7.119 149.834,36.223 210.648,43.964c10.432,1.352 20.874,2.924 23.325,3.489c17.381,3.947 146.403,5.444 203.259,2.522c68.974,-3.625 124.156,-9.793 167.098,-18.345c23.442,-4.686 60.492,-11.458 88.802,-15.895c5.486,-0.881 14.888,-3.242 20.779,-5.022c11.122,-3.534 42.202,-10.51 60.193,-13.433c10.522,-1.964 35.446,-8.255 71.694,-18.528c12.453,-3.366 38.532,-8.377 58.085,-10.921c20.205,-2.79 42.121,-6.974 50.835,-9.97c8.502,-2.767 20.709,-6.785 27.262,-8.591c14.843,-4.344 49.399,-18.305 72.808,-29.393c9.534,-4.575 30.225,-11.801 45.73,-16.171c30.798,-8.511 38.401,-11.684 81.487,-33.271c10.179,-5.042 25.949,-13.839 34.999,-19.498c9.279,-5.448 19.863,-11.389 23.779,-12.87c3.696,-1.472 10.822,-5.509 15.541,-9.009c4.94,-3.509 16.574,-10.817 25.853,-16.264c9.5,-5.457 23.471,-15.066 31.172,-21.334c7.7,-6.269 17.341,-13.718 21.196,-16.742c3.855,-3.024 12.843,-10.227 19.891,-16.248c7.048,-6.022 14.775,-11.629 16.733,-12.369c2.178,-0.749 6.395,-5.775 9.501,-10.977c3.105,-5.203 9.016,-12.062 13.091,-15.095c4.075,-3.033 10.029,-8.79 13.408,-12.678c3.158,-3.88 7.622,-8.253 9.562,-9.434c2.152,-1.41 5.946,-5.978 8.196,-10.484c4.111,-7.671 4.094,-8.112 -0.383,-20.742c-5.226,-14.808 -14.677,-24.811 -22.614,-24.496c-3.969,0.158 -5.892,1.78 -6.616,5.784c-0.759,3.121 -2.868,5.634 -4.852,5.713c-2.866,0.114 -3.06,0.784 -1.226,2.478c2.063,1.905 4.488,1.809 9.471,-0.597c7.585,-3.614 7.815,-3.403 10.123,4.676c1.525,5.019 1.136,6.359 -2.789,7.619c-2.398,0.758 -4.551,2.168 -4.507,3.271c0.044,1.102 -1.464,2.045 -3.228,2.115c-1.764,0.071 -2.593,1.428 -1.871,2.946c1.472,3.695 -8.779,18.014 -16.523,23.18c-5.601,3.535 -6.042,3.553 -7.735,-0.134c-0.969,-2.17 -3.244,-3.846 -5.008,-3.776c-3.968,0.158 -5.915,-9.923 -3.073,-16.219c1.835,-3.827 1.606,-4.038 -2.769,-2.981c-3.713,1.031 -2.689,-0.997 4.747,-8.359c5.954,-5.758 11.123,-9.054 13.574,-8.489c2.002,0.362 3.308,-0.132 2.382,-1.199c-0.705,-1.076 1.139,-4.683 4.094,-8.113c7.181,-8.235 6.997,-12.865 -0.226,-11.253c-3.061,0.784 -6.394,0.254 -7.778,-1.236c-3.236,-3.626 -22.197,-2.872 -22.048,0.876c0.175,4.409 4.434,6.007 7.848,3c2.346,-2.08 2.584,-1.648 1.86,2.355c-0.927,4.454 -0.477,4.657 6.296,2.842l7.435,-1.841l-7.242,6.691c-4.058,3.474 -10.647,9.919 -14.678,14.054c-8.284,8.279 -11.988,9.53 -10.258,3.058c1.174,-3.801 0.495,-4.216 -5.193,-2.886c-3.713,1.031 -7.047,0.501 -7.981,-0.787c-2.336,-3.219 -15.777,-2.464 -18.723,1.186c-1.676,2.275 -1.395,3.81 0.669,5.715c2.071,2.126 1.895,3.237 -0.884,5.556c-8.133,6.506 -1.926,12.663 6.445,6.589c5.372,-3.746 10.698,-3.075 8.44,1.211c-1.033,1.807 -0.142,1.993 2.248,1.014c4.34,-1.939 14.718,3.611 14.885,7.8c0.061,1.543 1.904,3.458 3.914,4.04c2.69,0.997 3.166,1.862 1.26,3.925c-1.482,1.605 -2.479,4.294 -2.4,6.278c0.184,4.631 -6.202,10.626 -30.874,28.831c-11.802,8.639 -27.247,20.073 -34.321,25.434c-7.074,5.36 -14.801,10.967 -17.165,12.606c-2.373,1.419 -8.591,6.083 -13.963,9.83c-10.955,7.722 -16.194,9.256 -14.429,3.665c0.786,-2.46 -0.413,-4.842 -3.358,-6.712c-2.495,-1.668 -4.629,-5.337 -4.742,-8.203c-0.114,-2.866 -1.339,-5.909 -2.468,-6.527c-1.358,-0.829 -1.64,-2.364 -1.031,-3.713c1.041,-1.587 0.371,-1.781 -1.137,-0.838c-1.72,1.172 -3.087,0.123 -4.083,-2.708c-0.766,-2.62 -2.168,-4.552 -3.271,-4.508c-2.866,0.114 -2.493,-7.188 0.638,-11.729c1.465,-2.045 4.922,-3.949 7.568,-4.055c2.646,-0.105 4.578,-1.507 4.499,-3.491c-0.149,-3.748 17.201,-17.245 22.713,-17.464c3.087,-0.123 3.29,-0.573 0.521,-3.554c-2.777,-3.202 -2.565,-3.432 1.897,-2.284c5.361,1.554 6.959,-2.706 1.588,-4.48c-2.91,-0.988 -22.164,9.052 -39.814,20.574c-3.872,2.583 -7.77,4.504 -8.661,4.319c-0.899,-0.406 -14.191,4.097 -29.855,10.019c-55.935,20.552 -53.095,19.776 -75.389,20c-82.335,0.843 -102.68,0.106 -109.452,-3.6c-4.065,-2.267 -8.068,-2.991 -9.788,-1.819c-1.5,1.164 -18.688,2.068 -38.117,2.177c-29.799,0.301 -35.302,0.741 -34.315,3.352c0.749,2.178 7.636,3.229 25.318,3.631c13.273,0.576 26.571,1.814 29.711,3.015l5.617,2.426l-7.162,3.156c-3.678,1.912 -6.906,4.028 -6.863,5.13c0.141,3.528 3.782,6.254 9.796,7.561c7.346,1.474 8.165,5.417 1.331,5.688c-2.858,0.335 -15.39,1.716 -28.134,3.327c-14.94,1.918 -23.759,2.269 -25.134,0.999c-2.98,-2.753 -12.681,-2.367 -16.756,0.666c-2.364,1.639 -1.456,2.266 3.835,2.055c10.583,-0.42 10.723,3.107 0.06,7.064c-6.306,2.459 -11.148,2.873 -14.719,1.91c-2.91,-0.988 -13.299,-1.238 -22.991,-0.632c-19.376,1.433 -23.168,0.479 -23.43,-6.135c-0.088,-2.205 -1.269,-4.145 -2.592,-4.093c-1.102,0.044 -1.508,0.944 -0.794,2.24c0.934,1.288 -5.204,2.415 -16.889,2.88c-12.568,0.499 -17.224,0.022 -15.08,-1.609c1.72,-1.173 5.009,-1.745 7.24,-1.171c4.692,1.359 4.772,-2.177 0.213,-5.75c-6.145,-4.614 -4.063,-7.788 5.611,-8.835c10.566,-0.862 11.642,-1.567 9.297,-5.007c-0.943,-1.508 -6.702,-1.942 -14.63,-1.406c-7.047,0.501 -13.679,0.323 -14.587,-0.304c-0.696,-0.855 -0.943,-1.508 -0.502,-1.526c0.432,-0.238 13.864,-1.213 29.491,-2.497c15.839,-1.512 29.033,-2.92 29.456,-3.378c2.761,-2.76 -4.541,-3.132 -31.439,-2.063c-19.834,1.009 -30.452,0.547 -31.616,-0.952c-1.172,-1.72 6.086,-2.45 25.717,-3.01c76.567,-1.497 107.946,-6.498 46.963,-7.387c-39.323,-0.424 -85.076,-1.477 -91.734,-2.316c-5.538,-0.443 -5.935,0.677 -3.018,7.407c2.424,5.424 -3.688,7.213 -35.393,9.577c-16.077,1.081 -29.253,2.929 -29.21,4.032c0.044,1.102 1.182,1.94 2.284,1.896c1.323,-0.052 2.24,0.795 2.293,2.118c0.043,1.102 -2.779,2.318 -6.307,2.458c-6.394,0.255 -10.672,3.737 -7.921,6.277c2.531,2.55 58.92,-1.016 61.461,-3.767c3.175,-3.439 15.31,-3.7 18.749,-0.524c2.292,2.117 1.013,3.272 -5.31,5.29c-10.469,3.286 -10.903,9.045 -0.726,9.524c9.075,0.523 10.202,6.661 0.942,7.029c-3.528,0.14 -6.782,1.594 -7.374,3.384c-0.803,2.02 -6.253,3.782 -16.131,5.279c-8.131,0.986 -18.873,2.958 -23.68,4.253c-11.148,2.872 -90.502,6.468 -116.826,5.306c-15.486,-0.71 -19.94,-1.637 -20.045,-4.283c-0.096,-2.425 2.515,-3.412 9.781,-3.921c14.755,-1.028 15.849,-1.293 14.438,-3.445c-1.878,-2.796 -16.296,-4.431 -43.476,-4.897l-23.203,-0.403l-0.968,-7.69c-0.607,-4.172 -2.114,-8.749 -3.278,-10.249c-1.605,-1.482 -1.446,-3.034 0.274,-4.206c1.941,-1.181 1.447,-2.487 -1.277,-4.366c-5.211,-3.326 -2.944,-7.391 4.111,-7.671c2.867,-0.114 7.197,-2.274 9.526,-4.795c2.964,-3.21 7.101,-4.699 14.597,-4.997c17.197,-0.683 9.401,-2.361 -12.69,-2.587c-11.491,-0.206 -21.659,-0.464 -22.541,-0.429c-1.103,0.044 -1.825,-1.473 -1.895,-3.237c-0.193,-4.851 -10.572,-10.401 -15.114,-8.012c-2.17,0.97 -8.264,3.199 -13.724,4.741l-9.825,2.82l7.778,1.236c7.558,1.246 8.016,1.669 7.432,9.201c-0.627,6.428 0.095,7.945 4.108,8.89c2.451,0.565 4.709,1.8 4.744,2.682c0.131,3.307 -12.41,4.468 -49.485,5.059c-43.037,0.606 -67.448,3.122 -58.268,6.29c3.139,1.2 17.487,1.072 33.115,-0.212c31.475,-2.576 58.276,-0.549 66.229,5.097c2.954,2.091 6.772,3.706 8.315,3.644c1.764,-0.07 3.148,1.421 3.218,3.185c0.097,2.425 -2.514,3.412 -10.671,3.736c-11.024,0.438 -16.846,3.982 -9.5,5.457c6.905,1.492 18.749,-0.525 20.179,-3.452c2.479,-4.294 8.581,-0.783 8.817,5.17c0.22,5.512 -0.001,5.521 -14.596,4.997c-7.955,-0.126 -12.364,0.049 -9.481,0.376c2.672,0.557 4.93,1.792 4.973,2.894c0.106,2.646 -14.12,5.861 -17.286,4c-1.349,-0.609 -10.353,0.632 -19.976,3.002c-14.217,3.436 -19.058,3.849 -25.76,1.907c-4.683,-1.139 -10.044,-2.692 -11.826,-3.063c-2.68,-0.777 -2.486,-1.447 0.777,-2.681c8.035,-3.411 -0.625,-4.612 -11.103,-1.546c-21.184,5.921 -80.139,6.056 -80.376,0.103c-0.044,-1.103 1.033,-1.808 2.355,-1.861c1.103,-0.043 1.509,-0.943 0.795,-2.239c-0.706,-1.076 -3.836,-2.056 -6.923,-1.933c-6.614,0.262 -6.675,-1.281 -0.492,-6.827l4.684,-4.381l-5.123,-1.122c-4.683,-1.139 -5.168,-2.223 -4.311,-8.441c1.078,-6.225 0.373,-7.302 -4.089,-8.449c-4.674,-0.919 -5.159,-2.003 -4.381,-10.205c0.778,-8.201 1.819,-9.788 8.566,-12.265c6.298,-2.679 6.933,-3.367 3.573,-4.558c-2.239,-0.795 -6.411,-0.187 -9.436,1.479c-4.102,2.371 -6.959,2.706 -13.432,0.975c-5.353,-1.333 -9.33,-1.395 -12.135,0.262c-4.745,2.838 -4.763,2.397 -0.267,9.948c1.904,3.457 3.649,8.467 3.754,11.112c0.202,5.071 -0.019,5.08 -31.547,6.333c-30.426,1.209 -42.015,4.099 -28.214,6.863l6.015,1.307l-5.425,2.423l-5.204,2.415l6.676,1.281c3.783,0.733 15.503,1.15 26.095,0.95c21.836,-0.647 21.598,-1.079 13.736,17.783c-3.433,8.086 -3.865,8.324 -17.712,9.978c-7.902,1.198 -17.771,2.915 -22.145,3.972c-4.145,1.269 -10.098,1.505 -13.22,0.746c-2.901,-0.768 -15.089,-1.829 -26.8,-2.026c-11.941,-0.409 -21.703,-1.567 -21.738,-2.449c-0.105,-2.645 -7.689,-4.552 -23.422,-5.914c-7.311,-0.593 -17.752,-2.166 -23.316,-3.269c-5.565,-1.104 -13.784,-2.323 -18.229,-3.03c-9.533,-0.946 -10.952,-3.319 -3.552,-6.042c4.569,-1.727 4.569,-1.727 0.327,-2.884c-10.053,-2.912 -12.592,-5.682 -11.497,-11.467c1.113,-5.344 1.765,-5.591 7.568,-4.055c3.359,1.191 14.621,1.186 24.737,0.121c9.895,-1.056 23.988,-2.057 31.043,-2.338c7.267,-0.509 12.303,-1.593 11.598,-2.669c-0.926,-1.067 -14.419,-1.635 -30.293,-1.004c-15.874,0.631 -29.791,0.521 -30.928,-0.317c-1.349,-0.609 -1.913,-3.678 -1.365,-6.57c1.306,-6.015 -2.318,-8.3 -16.295,-9.952c-6.429,-0.628 -11.262,0.006 -15.796,2.615c-3.457,1.904 -15.275,4.582 -26.264,5.902c-16.712,1.768 -20.478,1.476 -22.797,-1.302c-1.851,-2.135 -9.426,-3.822 -22.716,-4.839c-10.856,-0.894 -27.471,-2.221 -36.563,-3.184c-9.083,-0.743 -28.114,-1.754 -42.057,-2.525c-13.934,-0.55 -29.904,-2.344 -35.275,-4.118c-28.87,-9.673 -88.417,-41.093 -95.637,-50.522c-1.86,-2.355 -7.794,-7.199 -13.217,-10.295c-5.423,-3.097 -13.165,-8.973 -17.3,-13.004c-11.717,-11.459 -40.08,-41.689 -51.894,-55.573l-11.109,-12.808l-0.013,-0.331l-22.807,-23.253c-2.041,0.408 -3.864,1.274 -5.174,2.614c-2.126,2.072 -7.348,4.046 -11.299,4.645c-7.258,0.73 -21.546,7.923 -35.068,17.735c-2.542,1.786 -4.177,2.893 -5.238,3.359l-8.339,5.73c-0.115,2.577 -1.747,3.153 -3.405,2.34l-7.243,4.977c0.44,1.201 0.524,2.998 0.364,5.52c-0.127,1.007 0.903,5.75 2.319,11.593l10.774,14.202c0.111,-3.829 -0.628,-5.532 -2.604,-6.337c-3.351,-0.971 -5.129,-12.383 -2.368,-15.143c2.54,-2.751 7.407,3.018 7.652,9.191c0.421,10.583 3.435,19.738 6.521,19.615c2.856,-0.113 4.928,4.91 5.229,11.696l4.894,6.453c0.159,-1.272 0.197,-2.958 0.113,-5.085c-0.202,-5.071 0.522,-9.075 1.845,-9.127c1.103,-0.044 4.849,5.328 8.199,11.819c6.197,11.458 10.543,15.26 10.272,8.425c-0.07,-1.764 0.971,-3.351 2.073,-3.395c1.323,-0.052 2.249,1.015 2.301,2.338c0.062,1.543 2.839,4.745 6.039,7.489c4.118,3.59 5.334,6.412 4.575,9.534c-0.786,2.46 -0.266,4.427 1.057,4.375c1.323,-0.053 2.364,-1.64 2.294,-3.404c-0.21,-5.291 3.82,-3.906 8.289,2.983c2.124,3.449 4.672,6.439 5.554,6.404c0.662,-0.026 2.522,2.329 3.959,5.143c1.445,3.034 6.1,9.032 10.473,13.495c4.373,4.464 8.578,10.259 9.565,12.87c2.741,7.84 -3.494,6.542 -12.019,-2.393c-5.079,-5.54 -7.786,-6.978 -8.818,-5.171c-1.253,1.817 -3.06,0.785 -5.872,-3.299c-8.368,-12.085 -10.738,-14.463 -10.658,-1.272l14.294,18.843c1.909,-1.773 4.808,-1.083 6.227,2.794c1.736,4.789 1.039,3.934 20.663,30.978c17.994,24.9 27.506,36.447 36.914,45.347c3.447,3.397 6.233,6.819 6.259,7.481c0.035,0.881 5.81,7.277 12.714,14.29c7.829,8.08 12.379,11.432 12.503,8.998c-0.079,-1.984 0.944,-4.012 2.47,-4.515c1.305,-0.493 1.676,-2.274 0.733,-3.783c-1.402,-1.931 -2.504,-1.888 -4.85,0.193c-2.347,2.081 -3.237,1.895 -4.454,-0.927c-0.74,-1.958 -3.006,-3.414 -4.77,-3.344c-2.425,0.097 -2.927,-1.429 -2.027,-6.544c1.069,-6.446 -2.149,-9.631 -4.126,-3.811c-1.174,3.801 -8.571,-4.517 -7.397,-8.318c0.388,-1.34 -1.666,-3.025 -4.779,-3.564c-5.794,-1.316 -7.503,-5.443 -2.212,-5.654c4.41,-0.175 4.11,-2.15 -1.621,-7.443c-4.364,-4.243 -20.7,-26.339 -20.779,-28.323c-0.017,-0.441 1.508,-0.943 3.272,-1.014c1.764,-0.07 3.334,0.53 3.378,1.633c0.035,0.882 2.309,2.558 5.219,3.546c2.699,1.218 6.605,5.038 8.517,8.716c2.134,3.669 4.884,6.21 6.402,5.487c1.746,-0.511 2.469,1.006 2.371,4.101c-0.283,3.986 0.651,5.274 3.958,5.143c3.087,-0.123 4.471,1.368 4.629,5.336c0.378,3.96 1.533,5.239 4.161,4.693c2.408,-0.537 3.325,0.31 2.53,2.549c-0.794,2.24 0.582,3.511 4.127,3.811c3.545,0.301 4.929,1.792 4.84,5.108c-0.309,3.324 2.221,5.874 8.305,8.944c4.735,2.462 13.835,9.167 20.465,14.866c7.794,7.198 12.768,10.092 15.158,9.113c2.61,-0.987 -3.164,-7.382 -23.329,-25.792c-14.662,-13.329 -29.368,-27.761 -32.851,-32.039c-3.262,-4.287 -11.584,-13.673 -18.276,-20.915c-6.683,-7.021 -12.264,-14.087 -12.316,-15.41c-0.123,-3.086 -5.324,-11.713 -8.04,-13.371c-1.137,-0.838 -1.207,-2.602 -0.378,-3.96c1.023,-2.028 2.364,-1.64 4.683,1.139c3.015,3.634 3.015,3.634 3.051,-1.005c-0.105,-2.645 1.527,-6.023 3.688,-7.213c5.178,-3.076 11.747,1.079 29.663,18.475c21.592,21.003 24.114,23.332 24.96,22.415c0.415,-0.679 -1.445,-3.034 -4.196,-5.574c-2.98,-2.753 -4.434,-6.007 -3.649,-8.468c0.768,-2.901 -1.083,-5.035 -6.938,-7.894c-7.425,-3.459 -9.056,-5.603 -8.358,-10.268c0.185,-0.89 -1.269,-4.145 -3.367,-6.932c-3.738,-5.152 -3.518,-5.16 2.267,-4.065c5.124,1.121 5.547,0.663 4.058,-3.474c-0.767,-2.619 -0.837,-4.383 0.274,-4.207c0.9,0.406 1.773,0.151 1.967,-0.519c-0.026,-0.662 1.192,-3.36 2.621,-6.288c2.03,-4.497 1.959,-6.261 -1.541,-10.98c-2.803,-3.863 -3.323,-5.83 -1.365,-6.57c1.306,-0.494 3.881,-2.363 5.354,-4.188c1.694,-1.834 3.846,-3.244 4.949,-3.288c3.527,-0.14 37.377,23.689 56.563,39.709c19.177,15.799 32.139,25.221 34.785,25.116c1.322,-0.052 3.386,1.853 4.805,4.226c1.419,2.373 3.923,4.26 5.687,4.19c1.764,-0.07 3.342,0.751 3.386,1.853c0.044,1.103 0.581,3.51 1.304,5.027c0.731,1.738 -0.866,5.997 -3.601,9.418c-4.834,6.154 -5.275,6.172 -12.894,3.383c-4.479,-1.588 -8.774,-4.068 -9.488,-5.364c-2.583,-3.872 -7.61,-2.568 -8.96,2.343c-0.786,2.461 -2.268,4.065 -3.397,3.448c-1.137,-0.838 -2.001,-0.362 -1.958,0.74c0.044,1.102 2.946,1.87 6.473,1.73c7.055,-0.28 21.067,7.775 19.902,11.796c-0.389,1.341 -2.567,2.09 -4.781,1.957c-3.554,-0.521 -3.765,-0.292 -1.218,2.698c4.85,5.328 1.383,7.012 -6.941,3.147c-11.243,-5.074 -20.51,-10.447 -22.37,-12.802c-0.926,-1.068 -2.046,-1.465 -2.681,-0.777c-0.635,0.688 1.013,3.272 3.552,6.042c2.531,2.549 4.214,6.015 3.623,7.806c-0.794,2.239 0.343,3.077 3.633,2.505c3.078,-0.343 4.885,0.689 5.449,3.758c0.317,2.417 2.424,5.425 4.24,6.677c2.037,1.244 3.65,2.947 3.685,3.829c0.106,2.646 -8.325,1.656 -11.331,-1.758c-3.236,-3.626 -15.634,-9.978 -16.904,-8.603c-1.05,1.367 7.449,9.641 14.01,13.576c7.459,4.341 7.176,8.327 -0.383,12.602c-8.211,4.522 -10.698,3.075 -39.018,-20.531c-15.527,-12.854 -1.043,7.107 15.665,21.901c9.143,7.807 9.152,8.028 4.151,9.993c-2.822,1.216 -4.516,3.05 -3.81,4.126c0.925,1.068 -1.404,3.589 -4.861,5.493c-6.051,3.332 -6.941,3.147 -14.41,-1.414c-9.743,-6.238 -10.405,-6.212 -10.142,0.403c0.21,5.291 9.389,13.98 31.432,29.666c6.366,4.605 12.785,10.533 14.222,13.347c1.912,3.678 4.39,4.904 9.02,4.72c4.189,-0.166 7.558,1.246 8.986,3.839c1.41,2.152 6.621,5.478 11.551,7.269c4.929,1.792 8.985,3.839 9.012,4.5c0.002,0.062 -0.058,0.122 -0.176,0.18Zm671.679,-106.364c12.99,4.563 15.714,6.442 15.916,11.513c0.087,2.205 2.194,5.213 4.681,6.659c2.716,1.659 4.62,5.117 4.742,8.203c0.123,3.087 1.145,6.58 2.291,7.638c1.155,1.279 2.627,4.975 3.217,8.705l0.924,6.588l-22.047,0.877c-12.127,0.481 -35.48,1.851 -51.777,2.941c-29.077,1.818 -29.509,2.056 -18.601,4.272c6.235,1.298 14.234,2.526 18.202,2.368c7.505,-0.077 11.393,3.301 8.218,6.74c-1.059,1.146 -7.171,2.935 -13.53,4.071c-7.902,1.197 -10.724,2.414 -9.119,3.896c1.375,1.27 14.859,1.617 34.473,0.617c22.03,-1.317 33.521,-1.112 37.127,0.733c2.708,1.438 9.357,2.057 14.851,1.397c8.802,-0.792 10.363,-0.412 13.457,5.206c4.249,6.898 5.144,23.866 1.862,30.179c-1.836,3.827 -5.346,4.409 -34.881,5.803c-21.598,1.079 -34.351,2.469 -37.147,4.347c-2.364,1.64 -8.202,4.743 -12.974,6.92l-8.679,3.878l6.49,2.171c6.702,1.942 46.927,-2.748 66.162,-7.708c4.807,-1.296 10.742,-1.973 13.185,-1.629c2.443,0.345 5.767,0.655 7.311,0.593c1.331,0.168 2.724,1.879 2.821,4.305c0.28,7.055 -22.388,20.101 -39.515,22.548c-8.123,1.207 -15.117,3.03 -15.734,4.159c-1.447,2.486 17.019,5.948 22.699,4.398c4.577,-1.507 8.906,1.854 5.466,4.199c-1.076,0.705 -13.079,4.274 -26.847,7.912c-31.477,8.097 -95.742,13.522 -132.719,11.016c-29.887,-1.903 -36.995,-2.946 -35.548,-5.432c0.626,-0.909 3.034,-1.446 5.486,-0.881c5.573,1.324 15.398,-1.495 15.284,-4.361c-0.044,-1.103 -2.53,-2.55 -5.652,-3.309c-6.455,-1.289 -7.451,-4.12 -1.789,-6.112c5.23,-1.754 76.946,-3.058 86.726,-1.459c5.106,0.68 8.625,0.32 9.446,-1.259c1.65,-2.936 2.091,-2.954 -17.567,-3.056c-8.395,-0.108 -17.929,-1.054 -21.297,-2.466c-3.36,-1.191 -7.346,-1.474 -8.634,-0.54c-1.076,0.705 -7.505,0.078 -14.189,-1.423c-8.475,-2.093 -18.211,-2.589 -34.72,-1.27c-21.572,1.74 -41.758,-0.549 -45.037,-5.277c-0.476,-0.864 11.174,-2.211 25.717,-3.009c14.772,-0.587 29.279,-2.268 32.102,-3.484c9.763,-4.363 -17.936,-6.796 -38.573,-3.767c-9.658,1.488 -18.239,2.27 -19.138,1.864c-2.936,-1.649 -2.282,-7.417 0.804,-7.54c1.323,-0.052 5.671,-1.771 9.12,-3.895c6.686,-4.02 7.78,-4.284 31.257,-8.088c22.595,-3.769 14.967,-6.778 -14.136,-5.621l-26.457,1.051l-2.917,-40.074l10.089,-1.726c5.477,-1.101 12.224,-3.577 15.232,-5.684c2.787,-2.098 6.28,-3.121 7.637,-2.291c3.387,1.853 17.612,-1.363 17.507,-4.008c-0.105,-2.646 -18.854,-2.122 -27.789,0.883c-6.976,2.265 -18.485,1.618 -18.599,-1.248c-0.14,-3.528 11.432,-6.858 22.72,-6.203c7.081,0.381 12.576,-0.279 13.396,-1.857c1.438,-2.707 -0.775,-2.84 -24.375,-2.123l-17.647,0.481l-1.463,-36.82l8.705,-3.217c21.335,-7.693 69.938,-12.716 144.062,-14.558c40.594,-0.951 51.432,-0.498 59.712,2.264Zm-365.432,0.832c25.646,0.748 57.508,2.352 70.825,4.031c13.528,1.45 31.491,3.386 39.922,4.376c27.276,2.891 26.589,2.255 27.678,18.553c0.527,7.708 1.539,16.501 1.882,19.579c0.616,4.392 -0.213,5.75 -4.384,6.357c-2.849,0.555 -6.183,0.025 -7.558,-1.245c-3.209,-2.964 -12.028,-2.614 -13.678,0.322c-0.618,1.129 1.648,2.585 4.982,3.115c17.337,2.844 19.586,3.859 19.752,8.048c0.158,3.968 -1.368,4.471 -12.392,4.909c-7.055,0.28 -12.752,1.39 -12.7,2.713c0.044,1.102 2.301,2.337 4.947,2.232c2.875,0.107 8.898,1.634 13.386,3.443c8.968,3.398 13.014,10.745 10.208,17.923c-0.794,2.24 -1.28,6.675 -0.929,9.974c0.634,4.833 -0.195,6.191 -3.943,6.34c-6.174,0.245 -8.124,6.726 -2.939,9.391c3.156,1.641 3.412,2.514 1.048,4.154c-4.084,2.812 -13.353,2.96 -24.711,0.541c-11.587,-2.631 -30.24,0.318 -30.065,4.728c0.123,3.086 14.841,6.697 17.17,4.175c0.626,-0.908 2.848,-0.554 5.097,0.46c2.478,1.227 6.667,1.06 11.244,-0.447c5.451,-1.762 8.105,-1.647 10.847,0.673c2.055,1.685 5.423,3.097 7.187,3.027c3.307,-0.131 6.34,3.944 6.524,8.574c0.044,1.102 -8.299,2.317 -18.441,2.72c-15.213,0.605 -19.878,-0.093 -24.428,-3.445c-2.954,-2.091 -7.001,-3.918 -8.765,-3.848c-1.764,0.07 -6.667,-1.06 -10.706,-2.666c-7.839,-2.78 -21.923,-1.558 -21.783,1.97c0.044,1.102 1.622,1.923 3.606,1.844c1.985,-0.079 6.032,1.748 9.215,4.05l5.908,4.182l-5.512,0.219c-2.866,0.114 -6.438,-0.848 -7.813,-2.118c-2.98,-2.753 -9.524,-0.726 -9.393,2.581c0.175,4.41 14.144,5.842 68.319,7.664c18.131,0.604 20.873,2.924 15.068,12.43l-3.723,6.331l-30.046,-0.352c-24.967,-0.333 -30.47,0.107 -34.104,3.122c-5.989,4.875 -11.951,4.891 -12.144,0.041c-0.219,-5.512 -24.902,-9.831 -34.022,-5.935c-4.78,1.956 -9.86,1.937 -20.76,-0.058c-8.016,-1.669 -15.106,-2.271 -15.741,-1.583c-0.644,0.467 -5.785,-1.095 -11.411,-3.742c-10.573,-4.88 -40.705,-12.957 -47.54,-12.685c-2.205,0.087 -4.012,-0.945 -4.056,-2.047c-0.053,-1.323 -2.072,-2.126 -4.718,-2.021c-2.425,0.096 -7.134,-1.704 -10.317,-4.007c-3.183,-2.302 -7.01,-4.137 -8.553,-4.076c-1.543,0.061 -4.03,-1.386 -5.873,-3.3c-2.548,-2.99 -2.115,-3.228 4.992,-2.186c5.997,0.866 8.184,0.337 8.952,-2.564c0.803,-2.019 0.063,-3.977 -1.939,-4.339c-1.79,-0.592 -4.912,-1.351 -6.922,-1.933c-6.923,-1.933 -0.66,-5.495 7.991,-4.514c10.432,1.352 10.989,-1.32 1.272,-6.896c-12.204,-7.023 -11.233,-10.374 2.948,-9.171c16.843,1.539 19.261,-4.298 4.032,-9.655c-5.828,-2.198 -7.442,-3.9 -7.626,-8.53c-0.131,-3.307 1.016,-7.77 2.472,-10.036c2.717,-3.862 3.82,-3.905 27.224,1.568c13.369,3.002 29.392,6.119 35.371,6.544l11.085,1.105l-6.781,-3.926c-7.001,-3.917 -17.257,-6.38 -43.889,-9.738c-15.547,-2.253 -22.328,-6.179 -18.094,-10.764c1.27,-1.376 1.554,-5.362 0.761,-8.643c-0.802,-3.501 -0.527,-7.707 0.734,-9.303c1.262,-1.596 3.672,-13.175 5.386,-25.609c3.19,-25.301 2.979,-25.072 21.78,-24.273c6.632,0.178 33.16,0.89 58.584,1.646Zm575.549,-24.449l3.786,-0.16c24.99,-1.024 44.891,-1.207 51.907,-0.036c3.554,0.521 4.938,2.012 4.135,4.031c-0.573,2.231 0.811,3.722 4.153,4.472c6.455,1.289 12.15,11.221 8.066,14.033c-1.509,0.944 -9.657,1.488 -18.053,1.38c-8.625,-0.319 -20.972,0.171 -27.551,1.316c-19.967,3.223 -7.471,6.48 23.872,6.118c15.23,-0.164 28.494,0.192 29.622,0.81c1.129,0.617 1.657,2.805 1.066,4.595c-0.803,2.019 -0.257,4.647 1.127,6.138c4.382,4.684 -4.393,6.137 -45.657,6.894c-38.389,0.863 -39.271,0.898 -47.651,6.751l-8.6,5.863l6.42,0.407c3.325,0.31 17.603,-1.583 31.415,-4.119c25.426,-4.765 63.295,-7.595 66.037,-5.274c2.98,2.752 -5.999,10.175 -17.112,13.929c-6.315,2.239 -17.64,6.222 -25.48,8.963c-17.649,6.001 -9.694,6.126 18.784,0.357c22.128,-4.413 27.402,-5.064 29.244,-3.15c2.522,2.329 -7.798,9.364 -18.055,12.422c-7.197,2.273 -9.552,4.133 -9.421,7.44c0.211,5.292 4.858,5.549 17.682,0.402c11.087,-4.416 13.106,-3.613 13.492,6.088c0.473,11.906 -5.163,14.559 -57.912,26.372c-7.444,1.621 -14.209,3.656 -15.047,4.794c-0.847,0.917 -4.348,1.718 -7.655,1.85c-3.307,0.131 -8.767,1.673 -12.224,3.577c-5.398,3.085 -12.18,4.68 -47.696,11.17c-4.816,1.075 -9.834,2.599 -11.113,3.754c-1.279,1.155 -21.281,3.496 -44.625,5.086c-38.099,2.618 -42.297,2.564 -43.76,-0.911c-0.74,-1.958 -0.439,-5.503 1.016,-7.769c1.65,-2.936 1.598,-4.259 -0.166,-4.189c-1.323,0.053 -2.046,-1.464 -1.684,-3.466c0.522,-3.554 14.387,-10.288 22.544,-10.613c4.851,-0.192 9.544,-4.354 9.395,-8.102c-0.053,-1.323 -2.301,-2.337 -4.947,-2.232c-27.568,0.875 -29.394,-0.599 -35.683,-31.043c-5.672,-26.053 -5.866,-25.383 7.892,-29.242c4.366,-1.278 5.848,-2.882 5.302,-5.51c-0.784,-3.061 -3.456,-3.617 -12.937,-3.24c-9.701,0.385 -12.161,-0.4 -12.945,-3.461c-0.52,-1.967 -1.913,-3.678 -3.015,-3.634c-1.068,0.043 -2.02,-2.199 -2.19,-5.146l-0.028,-0.574c-0.17,-2.947 -1.121,-5.188 -2.189,-5.146c-3.748,0.149 -9.082,-6.264 -8.102,-9.394c0.6,-1.57 5.151,-3.738 10.196,-4.601c5.044,-0.863 15.116,-3.03 22.339,-4.642c20.729,-4.83 97.232,-10.979 152.006,-13.358Zm-819.647,-16.639c18.968,4.987 41.72,10.708 49.736,12.377c34.312,7.69 88.043,20.57 94.084,22.539c3.139,1.2 6.525,3.053 7.23,4.129c1.173,1.72 -0.893,10.856 -4.662,21.605c-1.006,2.469 -1.527,6.023 -1.237,7.778c1.329,11.209 -0.048,15.46 -5.719,17.231c-3.492,1.022 -7.884,1.638 -10.327,1.294c-5.988,-0.646 -2.894,4.973 3.561,6.262c4.233,0.936 5.397,2.435 5.598,7.506c0.254,6.394 -0.178,6.632 -12.913,8.463c-7.24,1.171 -14.702,2.351 -16.448,2.862c-4.374,1.057 -19.922,-1.195 -24.886,-3.869c-2.249,-1.015 -5.591,-1.765 -7.355,-1.695c-1.984,0.079 -4.03,-1.386 -4.761,-3.123c-0.952,-1.729 -3.659,-3.167 -6.305,-3.062c-2.425,0.096 -12.725,-3.469 -22.619,-7.934c-9.893,-4.465 -20.193,-8.03 -22.839,-7.925c-2.645,0.105 -5.106,-0.681 -5.582,-1.545c-0.722,-1.517 -7.036,-4.799 -42.59,-21.494c-11.93,-5.709 -11.93,-5.709 -5.317,-0.451c3.862,2.717 12.908,8.099 20.342,11.778c7.425,3.459 13.976,7.174 14.673,8.029c0.687,0.636 5.634,2.868 11.013,4.863c5.6,1.985 12.566,5.021 15.74,7.103c5.211,3.326 43.129,18.381 45.995,18.267c0.441,-0.018 7.39,2.577 15.247,5.798c7.848,3 19.726,7.386 26.428,9.328c15.855,4.449 19.726,7.387 15.95,12.395c-1.473,1.825 -2.647,5.626 -2.753,8.501c-0.098,3.095 -1.36,4.691 -3.362,4.329c-1.781,-0.371 -8.633,-0.54 -14.815,-0.515c-7.946,0.095 -11.729,-0.638 -11.808,-2.622c-0.062,-1.544 -1.217,-2.823 -2.319,-2.779c-1.323,0.053 -2.135,1.851 -1.615,3.818c0.538,2.408 -0.503,3.995 -2.488,4.074c-1.764,0.07 -3.148,-1.421 -2.794,-3.643c0.468,-4.877 -3.368,-6.933 -4.956,-2.453c-0.997,2.69 -2.964,3.209 -8.299,2.317c-10.45,-1.793 -33.034,-8.845 -41.596,-13.142c-4.056,-2.047 -9.197,-3.609 -11.623,-3.513c-2.204,0.088 -4.894,-0.909 -5.599,-1.985c-0.714,-1.297 -2.954,-2.091 -4.938,-2.012c-2.866,0.113 -2.84,0.775 -0.53,3.333c1.613,1.702 3.879,3.158 5.202,3.106c1.323,-0.053 4.021,1.165 5.855,2.858c2.055,1.685 8.121,4.315 13.703,5.86c5.591,1.765 13.642,4.316 17.901,5.913c4.26,1.597 14.974,4.484 23.431,6.135c8.686,1.863 19.63,4.962 24.559,6.753c4.938,2.012 10.758,3.989 12.998,4.783c4.912,1.351 5.271,10.39 0.384,15.222c-3.396,3.447 -4.499,3.491 -12.585,0.058c-4.947,-2.232 -13.439,-4.765 -19.003,-5.869c-5.573,-1.324 -16.499,-3.982 -24.542,-6.312c-13.836,-3.646 -20.335,-6.037 -37.6,-12.638c-8.519,-3.195 -16.032,-3.338 -15.91,-0.251c0.184,4.63 -10.072,2.167 -31.667,-7.796c-17.777,-8.347 -24.134,-12.732 -30.861,-20.856c-4.858,-5.548 -9.68,-10.214 -11.003,-10.162c-1.332,-0.168 -9.752,-6.458 -18.887,-14.045c-15.782,-13.726 -16.241,-14.149 -11.954,-17.411c4.075,-3.033 5.627,-2.874 14.384,0.753c5.617,2.427 10.987,4.201 12.31,4.148c3.968,-0.158 2.259,-4.285 -3.675,-9.128c-4.33,-3.362 -5.061,-5.099 -3.129,-6.501c1.94,-1.181 1.693,-1.834 -0.952,-1.729c-4.851,0.193 -5.273,-4.869 -1.224,-8.563c2.558,-2.31 5.68,-1.551 16.27,3.77c7.204,3.467 14.664,7.808 16.71,9.273c1.833,1.693 4.973,2.894 6.737,2.824c3.307,-0.132 0.335,-2.664 -20.333,-17.079c-6.586,-4.597 -11.409,-9.263 -10.8,-10.612c0.838,-1.138 2.143,-1.631 3.272,-1.014c0.908,0.627 2.849,-0.554 4.322,-2.38c2.099,-2.733 3.643,-2.794 11.288,0.656c6.975,3.256 8.307,3.424 7.32,0.813c-0.952,-1.729 -2.778,-3.202 -4.541,-3.132c-2.646,0.105 -7.751,-6.096 -7.891,-9.623c-0.035,-0.882 3.704,-1.252 8.369,-0.554c4.657,0.478 6.412,0.187 4.172,-0.607c-3.589,-1.403 -3.836,-2.056 -1.057,-4.375c2.337,-2.301 4.33,-2.159 9.507,0.285c3.597,1.624 10.052,2.913 14.25,2.967c4.189,-0.167 10.882,1.555 14.506,3.84c6.781,3.926 13.298,6.759 23.597,10.324c3.14,1.2 8.527,3.415 11.905,5.048c3.597,1.623 6.94,2.374 7.575,1.686c1.482,-1.605 -3.843,-7.797 -6.71,-7.683c-1.322,0.053 -6.966,-3.036 -12.865,-6.997c-5.669,-3.749 -12.891,-7.658 -16.004,-8.197c-4.683,-1.139 -32.301,-12.628 -35.925,-14.913c-0.679,-0.415 0.592,-1.79 2.753,-2.98c1.931,-1.402 2.955,-3.43 2.241,-4.727c-0.935,-1.287 0.071,-3.756 2.003,-5.158c3.211,-2.557 3.193,-2.998 0.054,-4.198c-2.01,-0.583 -3.165,-1.862 -2.759,-2.761c1.852,-3.386 21.043,-3.928 31.757,-1.041Zm1071.2,-11.657c0.062,1.543 -2.946,3.65 -6.659,4.681c-7.876,1.859 -7.26,6.251 0.985,8.131c6.905,1.492 17.618,9.9 17.776,13.868c0.149,3.748 -3.158,3.88 -7.514,-0.143c-3.668,-3.387 -14.718,-3.611 -28.935,-0.175l-8.758,1.894l15.098,2.05c8.219,1.219 15.962,1.574 17.038,0.869c1.076,-0.706 2.416,-0.317 3.351,0.97c0.705,1.077 4.277,2.039 8.025,1.89c3.527,-0.14 6.429,0.628 6.481,1.95c0.044,1.103 -2.778,2.319 -6.306,2.459c-8.158,0.325 -10.663,3.957 -3.97,5.679c8.025,1.889 15.238,5.577 15.317,7.562c0.043,1.102 -2.532,2.971 -5.796,4.205c-3.475,1.463 -8.035,3.411 -10.416,4.609c-2.381,1.199 -6.73,2.918 -9.79,3.702c-7.655,1.85 -29.916,8.476 -39.732,11.516c-4.578,1.507 -11.775,3.78 -16.14,5.058c-4.146,1.269 -8.273,2.979 -8.908,3.666c-1.906,2.063 7.778,1.237 16.729,-1.327c4.366,-1.278 15.726,-4.379 25.339,-6.969c9.622,-2.37 21.855,-5.727 27.306,-7.489c21.361,-7.032 21.14,-7.024 25.433,0.976c3.817,7.136 3.843,7.797 0.297,13.017c-2.717,3.862 -7.701,6.268 -17.102,8.629c-36.963,8.977 -62.24,17.49 -62.1,21.018c0.052,1.323 4.471,1.368 10.609,0.241c5.697,-1.11 15.354,-2.598 21.272,-3.717c6.147,-0.906 12.259,-2.695 13.75,-4.079c1.5,-1.164 4.754,-2.618 7.603,-3.173c2.628,-0.546 7.003,-1.603 9.834,-2.599c5.662,-1.992 6.957,2.815 1.295,4.807c-2.17,0.969 -8.026,3.631 -13.01,6.037c-5.204,2.415 -10.196,4.601 -11.298,4.645c-1.764,0.07 -17.79,7.994 -24.044,11.776c-5.389,3.306 -25.091,7.622 -65.246,14.076c-39.925,6.665 -47.456,6.082 -38.291,-2.232c2.761,-2.76 3.555,-5 2.171,-6.491c-1.384,-1.49 -2.723,-7.399 -3.172,-13.123c-1.038,-9.454 -0.438,-11.024 4.308,-13.862c6.271,-3.341 6.774,-7.336 1.378,-9.771c-2.249,-1.015 -5.846,-2.639 -7.875,-3.662c-6.957,-2.815 -5.236,-9.509 3.055,-12.046c8.299,-2.318 7.109,-4.478 -4.725,-7.762c-7.143,-1.925 -8.307,-3.424 -9.927,-10.868c-0.846,-4.603 -1.056,-9.895 -0.465,-11.685c0.583,-2.011 -0.837,-4.383 -3.535,-5.601c-5.634,-2.868 -13.259,-16.918 -10.71,-19.449c5.751,-5.307 43.64,-13.217 76.667,-15.633c54.371,-4.37 62.731,-5.143 74.549,-7.821c16.193,-3.736 18.627,-3.611 18.758,-0.304Zm153.859,-45.863c10,1.589 13.369,3.001 13.262,5.876c-0.141,1.993 1.71,4.128 3.941,4.702c2.46,0.785 4.303,2.7 4.382,4.684c0.079,1.984 1.507,4.577 3.323,5.83c1.596,1.262 3.747,5.372 4.557,9.094c1.577,6.341 0.951,7.249 -8.566,12.265c-5.619,3.094 -13.592,8.048 -17.667,11.08c-4.076,3.033 -8.838,5.431 -10.382,5.492c-1.764,0.07 -6.12,1.568 -9.798,3.481c-3.908,1.701 -10.417,4.61 -14.545,6.319c-15.214,6.126 -21.688,9.916 -21.565,13.003c0.157,3.969 0.378,3.96 13.017,-0.297c5.441,-1.982 13.944,-4.749 18.75,-6.045c4.807,-1.295 15.47,-5.252 23.937,-8.901c8.256,-3.419 17.411,-6.433 20.056,-6.538c2.866,-0.114 5.036,-1.084 5.001,-1.965c-0.044,-1.103 2.303,-3.184 5.116,-4.62c4.119,-1.931 5.883,-2.001 7.734,0.134c3.007,3.414 0.138,14.569 -3.831,14.727c-1.323,0.052 -7.321,4.707 -13.275,10.464c-5.954,5.758 -14.096,12.043 -18.206,14.194c-3.898,1.922 -7.744,5.166 -8.336,6.956c-0.591,1.79 -2.302,3.183 -3.846,3.245c-1.543,0.061 -3.272,1.013 -3.66,2.353c-0.388,1.341 -4.621,0.405 -10.018,-2.031l-9.215,-4.05l-13.714,4.962c-16.749,6.407 -17.19,6.424 -17.409,0.912c-0.228,-5.732 -2.865,-5.406 -21.519,3.064c-18.223,8.232 -27.853,10.382 -27.155,5.716c0.159,-1.552 -0.837,-4.383 -2.221,-5.874c-4.391,-4.904 0.549,-8.413 12.446,-9.106c5.944,-0.457 10.53,-1.744 11.13,-3.313c0.38,-1.561 3.202,-2.778 6.068,-2.891c3.087,-0.123 5.892,-1.78 6.695,-3.8c0.776,-2.68 2.964,-3.209 7.629,-2.511c3.995,0.504 5.97,0.204 5.036,-1.084c-2.116,-3.228 -8.484,-2.312 -17.798,2.253c-11.915,5.774 -27.191,10.356 -30.771,9.173c-1.57,-0.6 -3.024,-3.855 -3.164,-7.382c-0.141,-3.528 -1.136,-6.359 -2.018,-6.324c-1.985,0.079 -7.573,-12.728 -7.783,-18.019c-0.158,-3.969 10.171,-10.783 17.006,-11.055c2.646,-0.105 10.689,-3.295 18.054,-6.9c32.908,-16.545 73.144,-32.056 85.27,-32.538c5.063,-0.422 5.927,-0.898 3.449,-2.125c-2.037,-1.244 -7.54,-0.804 -13.229,0.526c-35.639,8.925 -42.007,9.84 -43.249,6.356c-0.714,-1.296 0.335,-2.663 2.32,-2.742c1.984,-0.079 3.475,-1.463 3.413,-3.006c-0.113,-2.866 11.599,-8.19 23.426,-10.647c3.943,-0.82 7.638,-2.291 8.256,-3.42c1.447,-2.487 3.431,-2.565 19.666,0.323Zm173.433,-31.184c0.784,3.06 0.924,6.588 -0.117,8.175c-0.811,1.799 -0.582,2.011 0.926,1.068c5.804,-3.985 2.195,5.212 -4.412,11.216c-22.591,20.551 -48.083,40.335 -52.492,40.51c-1.323,0.052 -2.391,0.978 -2.338,2.301c0.044,1.102 -3.599,3.897 -7.93,6.057c-4.542,2.388 -12.304,7.113 -17.235,10.843c-4.939,3.508 -11.881,6.655 -15.408,6.795c-3.528,0.14 -7.656,1.85 -9.129,3.675c-3.573,4.559 -6.448,4.452 -6.649,-0.619c-0.167,-4.189 15.077,-20.694 19.266,-20.861c1.543,-0.061 1.905,-2.063 1.139,-4.682c-1.023,-3.493 0.865,-5.997 10.1,-12.547c6.448,-4.452 12.711,-8.013 14.034,-8.066c1.102,-0.044 7.999,-4.293 14.862,-9.423c6.862,-5.131 13.539,-9.372 14.642,-9.415c1.102,-0.044 5.16,-3.518 8.962,-7.865c4.022,-4.355 10.012,-9.23 13.258,-10.905c3.475,-1.463 6.262,-3.561 6.218,-4.664c-0.044,-1.102 1.465,-2.045 3.228,-2.116c1.764,-0.07 3.264,-1.233 3.22,-2.336c-0.175,-4.409 4.331,-2.159 5.855,2.859Zm-248.84,50.742c0.096,2.425 0.889,5.706 1.629,7.664c0.97,2.17 -0.062,3.978 -2.453,4.956c-2.399,0.758 -8.035,3.411 -12.797,5.808c-38.968,19.657 -41.155,20.185 -39.336,10.397c1.095,-5.785 0.619,-6.65 -3.349,-6.492c-6.615,0.263 -5.882,-3.52 1.457,-7.787c9.508,-5.236 44.099,-18.314 49.832,-18.542c3.307,-0.131 4.903,1.13 5.017,3.996Zm-1107.34,13.535c4.682,1.139 15.776,2.465 24.419,3.225c40.548,3.468 57.657,6.1 59.534,8.896c2.812,4.084 2.645,5.416 -0.769,8.422c-2.347,2.081 -5.213,2.195 -12.788,0.509c-5.344,-1.113 -15.547,-2.253 -22.832,-2.185c-24.737,-0.121 -64.166,-3.191 -75.321,-6.06c-6.023,-1.527 -13.572,-2.552 -16.42,-1.997c-6.8,1.153 -11.234,-4.854 -7.247,-10.091c2.514,-3.412 5.813,-3.764 23.063,-3.125c10.829,0.232 23.687,1.488 28.361,2.406Zm-302.216,-75.436c0.635,-0.687 -1.321,-5.468 -4.398,-10.645c-3.085,-5.398 -4.865,-11.29 -4.071,-13.529c0.989,-2.91 2.576,-1.869 8.377,5.187c5.819,7.498 7.626,8.53 10.193,6.441c2.338,-2.301 3.008,-2.107 3.113,0.538c0.079,1.985 1.498,4.357 3.297,5.169c1.578,0.821 6.657,6.36 10.871,12.376c4.205,5.795 10.235,13.064 13.224,16.036c7.803,7.419 12.951,14.722 11.258,16.556c-1.271,1.376 -15.924,-11.733 -18.331,-16.716c-0.723,-1.517 -0.644,0.467 0.167,4.189c1.356,6.35 0.95,7.249 -3.018,7.407c-2.646,0.105 -4.657,-0.477 -4.7,-1.58c-0.035,-0.882 -2.099,-2.787 -4.585,-4.234c-4.294,-2.479 -4.506,-2.25 -1.694,1.834c1.64,2.364 3.703,4.269 4.585,4.234c1.102,-0.044 1.834,1.694 1.921,3.899c0.088,2.204 2.204,5.433 4.717,7.541c5.237,3.987 6.056,7.93 2.088,8.088c-3.307,0.131 -23.259,-24.029 -31.986,-38.036c-3.068,-4.957 -6.321,-9.024 -7.423,-8.98c-0.882,0.035 -1.825,-1.473 -1.895,-3.237c-0.062,-1.543 -1.481,-3.916 -3.059,-4.736c-3.157,-1.641 -11.09,-17.888 -11.283,-22.739c-0.061,-1.543 4.788,3.785 10.845,11.715c5.836,7.938 11.373,13.901 11.787,13.222Zm19.752,-58.641c-0.194,0.671 3.465,3.838 8.438,6.731c4.982,3.115 10.008,7.332 11.18,9.052c1.182,1.94 6.251,7.259 11.303,12.137c10.325,9.748 27.234,29.613 31.501,36.951c2.371,4.102 2.186,4.992 -0.849,6.438c-3.475,1.463 -4.612,0.625 -13.463,-10.948c-2.795,-3.643 -3.686,-3.828 -5.556,-0.883c-1.253,1.816 -1.721,6.693 -0.902,10.635c1.118,5.918 0.73,7.258 -1.739,6.252c-1.79,-0.591 -3.316,-0.089 -3.281,0.793c0.044,1.103 1.64,2.364 3.439,3.176c3.58,1.183 5.033,9.958 1.725,10.089c-3.086,0.123 -23.399,-22.036 -30.24,-33.026c-3.297,-5.169 -8.199,-11.819 -10.967,-14.801c-2.998,-3.193 -5.351,-6.854 -5.413,-8.397c0.168,-1.331 3.122,0.759 6.816,4.808c4.382,4.684 6.868,6.131 6.781,3.926c-0.219,-5.512 -10.756,-15.03 -14.663,-13.329c-1.958,0.74 -3.51,0.581 -3.562,-0.742c-0.053,-1.322 0.997,-2.689 2.523,-3.191c1.305,-0.494 1.676,-2.275 0.733,-3.784c-1.402,-1.931 -2.505,-1.887 -4.639,-0.036c-2.347,2.081 -2.823,1.216 -2.856,-5.186c0.036,-4.639 1.228,-7.999 2.991,-8.069c1.323,-0.052 2.567,-2.089 2.48,-4.294c-0.097,-2.425 1.58,-4.7 3.767,-5.229c3.925,-1.26 5.706,-0.889 4.453,0.927Z" style="fill:#fff;fill-rule:nonzero;"/></g><path d="M496.003,180.436c0,0 316.088,-39.458 674.311,-20.345" style="fill:none;stroke:#fff;stroke-width:9.58px;"/><path d="M1642,114.352c-0,-0 64.189,-40.302 105.676,-74.913" style="fill:none;stroke:#fff;stroke-width:9.58px;"/><path d="M22.659,70.444c-0,0 175.137,231.38 191.894,229.317" style="fill:none;stroke:#fff;stroke-width:9.58px;"/></g><g id="puvu"><rect x="403.995" y="618.84" width="37.138" height="92.581" style="fill:#fff;"/><g><g><path d="M441.568,619.262l12.167,0c11.371,0 19.88,-2.246 25.527,-6.739c5.646,-4.493 8.469,-11.034 8.469,-19.623c-0,-8.668 -2.366,-15.069 -7.098,-19.205c-4.731,-4.135 -12.147,-6.202 -22.246,-6.202l-16.819,-0l-0,51.769Zm83.499,-27.674c0,18.768 -5.865,33.122 -17.594,43.062c-11.73,9.941 -28.41,14.911 -50.041,14.911l-15.864,-0l-0.435,-112.502l19.162,0.135c21.153,0 37.237,4.553 48.251,13.658c11.014,9.106 16.521,22.684 16.521,40.736Z" style="fill:#fff;fill-rule:nonzero;"/><path d="M649.601,711.589l-4.891,-17.058l-1.909,0c-3.896,6.203 -9.423,10.994 -16.58,14.374c-7.157,3.38 -15.308,5.07 -24.454,5.07c-15.666,-0 -27.475,-4.195 -35.427,-12.585c-7.953,-8.39 -11.929,-20.457 -11.929,-36.203l0,-86.959l36.382,0l0,77.893c0,9.623 1.71,16.84 5.129,21.651c3.42,4.811 8.867,7.216 16.342,7.216c10.179,0 17.535,-3.399 22.068,-10.198c4.533,-6.8 6.799,-18.072 6.799,-33.818l0,-62.744l36.382,0l0,133.361l-27.912,-0Z" style="fill:#fff;fill-rule:nonzero;"/><path d="M747.414,711.589l-50.815,-133.361l38.052,0l25.766,75.985c2.862,9.622 4.652,18.728 5.367,27.316l0.716,0c0.398,-7.634 2.187,-16.74 5.368,-27.316l25.646,-75.985l38.052,0l-50.815,133.361l-37.337,-0Z" style="fill:#fff;fill-rule:nonzero;"/><path d="M949.126,711.589l-4.891,-17.058l-1.909,0c-3.896,6.203 -9.423,10.994 -16.58,14.374c-7.157,3.38 -15.309,5.07 -24.454,5.07c-15.666,-0 -27.475,-4.195 -35.427,-12.585c-7.953,-8.39 -11.929,-20.457 -11.929,-36.203l0,-86.959l36.382,0l0,77.893c0,9.623 1.71,16.84 5.129,21.651c3.42,4.811 8.867,7.216 16.342,7.216c10.179,0 17.535,-3.399 22.068,-10.198c4.533,-6.8 6.799,-18.072 6.799,-33.818l0,-62.744l36.382,0l0,133.361l-27.912,-0Z" style="fill:#fff;fill-rule:nonzero;"/><path d="M1010.08,694.531c0,-6.68 1.79,-11.729 5.368,-15.149c3.579,-3.419 8.787,-5.129 15.626,-5.129c6.601,-0 11.71,1.749 15.329,5.248c3.618,3.499 5.427,8.509 5.427,15.03c0,6.283 -1.829,11.233 -5.487,14.851c-3.658,3.619 -8.748,5.428 -15.269,5.428c-6.68,-0 -11.849,-1.77 -15.507,-5.308c-3.658,-3.539 -5.487,-8.529 -5.487,-14.971Z" style="fill:#fff;fill-rule:nonzero;"/><path d="M1113.86,644.67c0,13.201 2.167,23.181 6.501,29.941c4.334,6.759 11.392,10.139 21.173,10.139c9.702,-0 16.68,-3.36 20.935,-10.08c4.254,-6.719 6.382,-16.72 6.382,-30c-0,-13.201 -2.147,-23.101 -6.442,-29.702c-4.294,-6.6 -11.332,-9.901 -21.113,-9.901c-9.702,0 -16.7,3.281 -20.994,9.841c-4.295,6.561 -6.442,16.482 -6.442,29.762Zm92.208,0c-0,21.71 -5.726,38.688 -17.177,50.935c-11.452,12.246 -27.396,18.37 -47.834,18.37c-12.803,-0 -24.095,-2.804 -33.877,-8.41c-9.781,-5.606 -17.296,-13.658 -22.545,-24.155c-5.248,-10.497 -7.872,-22.744 -7.872,-36.74c-0,-21.789 5.686,-38.728 17.057,-50.815c11.372,-12.088 27.356,-18.132 47.953,-18.132c12.803,0 24.096,2.784 33.877,8.35c9.781,5.567 17.296,13.559 22.545,23.977c5.248,10.417 7.873,22.624 7.873,36.62Z" style="fill:#fff;fill-rule:nonzero;"/><path d="M1310.56,575.723c4.931,0 9.026,0.358 12.287,1.074l-2.744,34.115c-2.942,-0.795 -6.521,-1.192 -10.735,-1.192c-11.611,-0 -20.657,2.982 -27.138,8.946c-6.481,5.964 -9.722,14.314 -9.722,25.05l0,67.873l-36.382,-0l0,-133.361l27.555,0l5.368,22.426l1.789,-0c4.136,-7.475 9.722,-13.499 16.76,-18.072c7.038,-4.572 14.692,-6.859 22.962,-6.859Z" style="fill:#fff;fill-rule:nonzero;"/><path d="M1460.74,578.228l0,18.489l-20.875,5.368c3.818,5.965 5.726,12.645 5.726,20.04c0,14.314 -4.99,25.468 -14.97,33.46c-9.98,7.992 -23.837,11.988 -41.571,11.988l-6.561,-0.358l-5.368,-0.596c-3.737,2.862 -5.606,6.043 -5.606,9.542c0,5.249 6.68,7.873 20.04,7.873l22.664,0c14.632,0 25.786,3.141 33.46,9.424c7.674,6.282 11.511,15.507 11.511,27.674c-0,15.586 -6.501,27.674 -19.504,36.262c-13.002,8.589 -31.67,12.883 -56.004,12.883c-18.608,0 -32.823,-3.24 -42.644,-9.721c-9.821,-6.482 -14.732,-15.567 -14.732,-27.257c0,-8.032 2.505,-14.752 7.515,-20.159c5.01,-5.408 12.366,-9.265 22.068,-11.571c-3.738,-1.59 -6.998,-4.195 -9.782,-7.813c-2.783,-3.618 -4.175,-7.455 -4.175,-11.511c0,-5.09 1.472,-9.324 4.414,-12.704c2.942,-3.38 7.197,-6.7 12.763,-9.96c-6.998,-3.022 -12.544,-7.873 -16.64,-14.553c-4.095,-6.68 -6.143,-14.553 -6.143,-23.619c-0,-14.552 4.732,-25.805 14.195,-33.757c9.463,-7.953 22.982,-11.929 40.557,-11.929c3.737,0 8.171,0.338 13.3,1.014c5.129,0.676 8.41,1.173 9.841,1.491l46.521,0Zm-102.943,152.208c0,5.01 2.406,8.946 7.217,11.809c4.811,2.863 11.551,4.295 20.219,4.295c13.042,-0 23.26,-1.79 30.656,-5.368c7.396,-3.579 11.094,-8.47 11.094,-14.672c-0,-5.01 -2.187,-8.47 -6.561,-10.378c-4.374,-1.909 -11.133,-2.863 -20.279,-2.863l-18.847,-0c-6.68,-0 -12.266,1.571 -16.759,4.712c-4.493,3.141 -6.74,7.296 -6.74,12.465Zm13.241,-108.549c-0,7.236 1.65,12.962 4.95,17.177c3.3,4.214 8.33,6.322 15.09,6.322c6.839,-0 11.849,-2.108 15.03,-6.322c3.181,-4.215 4.771,-9.941 4.771,-17.177c0,-16.064 -6.6,-24.096 -19.801,-24.096c-13.36,0 -20.04,8.032 -20.04,24.096Z" style="fill:#fff;fill-rule:nonzero;"/></g><g><g><path d="M401.476,528.101c-0.03,-1.03 0.78,-1.891 1.81,-1.922c1.03,-0.031 1.891,0.78 1.922,1.81c-0,-0 5.348,53.735 6.157,80.701c0.854,28.426 -1.037,89.851 -1.037,89.851c0.031,1.03 -0.78,1.891 -1.81,1.922c-1.03,0.031 -1.891,-0.78 -1.922,-1.81c0,0 1.918,-60.536 1.065,-88.961c-0.819,-27.263 -6.185,-81.591 -6.185,-81.591Z" style="fill:#fff;"/><path d="M398.545,507.821c-0.062,-2.059 1.56,-3.782 3.619,-3.843c2.06,-0.062 3.782,1.56 3.844,3.619l0.564,18.805c0.062,2.059 -1.56,3.782 -3.619,3.843c-2.059,0.062 -3.782,-1.56 -3.843,-3.619l-0.565,-18.805Z" style="fill:#fff;"/></g><g><path d="M414.926,561.098c-0.069,-0.795 0.52,-1.497 1.315,-1.566c0.796,-0.069 1.497,0.52 1.566,1.315c0,0 6.496,41.327 8.306,62.149c1.909,21.949 3.143,69.542 3.143,69.542c0.069,0.795 -0.52,1.497 -1.315,1.566c-0.795,0.069 -1.497,-0.521 -1.566,-1.316c0,0 -1.175,-46.906 -3.083,-68.854c-1.83,-21.051 -8.366,-62.836 -8.366,-62.836Z" style="fill:#fff;"/><path d="M411.768,545.541c-0.138,-1.59 1.041,-2.993 2.631,-3.132c1.59,-0.138 2.993,1.041 3.132,2.631l1.262,14.52c0.138,1.59 -1.04,2.994 -2.631,3.132c-1.59,0.138 -2.993,-1.041 -3.131,-2.631l-1.263,-14.52Z" style="fill:#fff;"/></g><g><path d="M388.301,535.034c-0.121,-1.022 0.591,-2.117 1.589,-2.444c0.998,-0.328 1.908,0.236 2.03,1.258c-0,-0 17.448,50.618 20.637,77.379c3.361,28.208 -0.473,91.869 -0.473,91.869c0.122,1.021 -0.59,2.117 -1.588,2.444c-0.998,0.328 -1.908,-0.236 -2.03,-1.258c0,0 3.939,-62.778 0.578,-90.986c-3.224,-27.054 -20.743,-78.262 -20.743,-78.262Z" style="fill:#fff;"/><path d="M383.664,515.732c-0.254,-2.128 1.162,-4.388 3.158,-5.043c1.997,-0.655 3.824,0.542 4.078,2.67l2.187,18.354c0.253,2.128 -1.162,4.388 -3.159,5.043c-1.997,0.655 -3.824,-0.541 -4.077,-2.67l-2.187,-18.354Z" style="fill:#fff;"/></g><g><path d="M429.918,524.204c0,-1.031 -0.836,-1.867 -1.866,-1.867c-1.03,-0 -1.867,0.836 -1.867,1.867c0,-0 -3.733,53.871 -3.733,80.849c0,28.439 3.733,89.78 3.733,89.78c0,1.03 0.837,1.866 1.867,1.866c1.03,0 1.866,-0.836 1.866,-1.866c0,-0 -3.733,-60.451 -3.733,-88.89c0,-27.275 3.733,-81.739 3.733,-81.739Z" style="fill:#fff;"/><path d="M432.24,503.845c-0,-2.06 -1.673,-3.733 -3.733,-3.733c-2.06,-0 -3.733,1.673 -3.733,3.733l-0,18.814c-0,2.06 1.673,3.733 3.733,3.733c2.06,-0 3.733,-1.673 3.733,-3.733l-0,-18.814Z" style="fill:#fff;"/></g><g><path d="M441.133,538.925c-0,-1.03 -0.745,-1.866 -1.662,-1.866c-0.918,-0 -1.663,0.836 -1.663,1.866c0,0 0.435,52.469 0.435,79.447c-0,28.439 -0.435,91.182 -0.435,91.182c0,1.031 0.745,1.867 1.663,1.867c0.917,-0 1.662,-0.836 1.662,-1.867c-0,0 0.842,-62.043 0.435,-90.292c-0.395,-27.359 0.305,-80.52 -0.435,-80.337Z" style="fill:#fff;"/><path d="M442.872,518.159c0,-1.835 -1.489,-3.325 -3.324,-3.325c-1.835,-0 -3.325,1.49 -3.325,3.325l-0,19.63c-0,1.835 1.49,3.324 3.325,3.324c1.835,0 3.324,-1.489 3.324,-3.324l0,-19.63Z" style="fill:#fff;"/></g><g><path d="M433.978,554.6c0,-0.924 -0.668,-1.674 -1.491,-1.674c-0.823,-0 -1.492,0.75 -1.492,1.674c0,0 0.39,47.068 0.39,71.271c0,25.511 -0.39,81.797 -0.39,81.797c0,0.924 0.669,1.675 1.492,1.675c0.823,-0 1.491,-0.751 1.491,-1.675c0,0 0.755,-55.658 0.39,-80.999c-0.354,-24.544 0.274,-72.233 -0.39,-72.069Z" style="fill:#fff;"/><path d="M435.539,535.971c-0,-1.647 -1.337,-2.983 -2.983,-2.983c-1.646,-0 -2.983,1.336 -2.983,2.983l0,17.609c0,1.646 1.337,2.983 2.983,2.983c1.646,-0 2.983,-1.337 2.983,-2.983l-0,-17.609Z" style="fill:#fff;"/></g><g><path d="M437.394,596.594c0,-0.588 -0.816,-1.065 -1.821,-1.065c-1.006,0 -1.822,0.477 -1.822,1.065c0,0 0.476,29.932 0.476,45.323c0,16.223 -0.476,52.016 -0.476,52.016c0,0.588 0.816,1.065 1.822,1.065c1.005,0 1.821,-0.477 1.821,-1.065c0,0 0.923,-35.393 0.477,-51.509c-0.433,-15.607 0.334,-45.934 -0.477,-45.83Z" style="fill:#fff;"/><path d="M439.301,586.494c-0,-2.011 -1.633,-3.643 -3.644,-3.643c-2.01,-0 -3.643,1.632 -3.643,3.643l0,7.705c0,2.011 1.633,3.643 3.643,3.643c2.011,0 3.644,-1.632 3.644,-3.643l-0,-7.705Z" style="fill:#fff;"/></g><g><path d="M420.129,572.048c0,-0.715 -0.517,-1.296 -1.154,-1.296c-0.637,0 -1.155,0.581 -1.155,1.296c0,0 0.302,36.435 0.302,55.169c0,19.747 -0.302,63.317 -0.302,63.317c0,0.715 0.518,1.296 1.155,1.296c0.637,-0 1.154,-0.581 1.154,-1.296c0,-0 0.585,-43.083 0.302,-62.699c-0.274,-18.999 0.212,-55.914 -0.302,-55.787Z" style="fill:#fff;"/><path d="M421.337,557.628c0,-1.274 -1.034,-2.309 -2.309,-2.309c-1.274,0 -2.308,1.035 -2.308,2.309l-0,13.631c-0,1.274 1.034,2.309 2.308,2.309c1.275,-0 2.309,-1.035 2.309,-2.309l0,-13.631Z" style="fill:#fff;"/></g><g><path d="M424.087,572.779c-0,-0.714 -0.517,-1.294 -1.153,-1.294c-0.637,-0 -1.154,0.58 -1.154,1.294c0,0 0.302,36.396 0.302,55.111c-0,19.726 -0.302,63.25 -0.302,63.25c0,0.714 0.517,1.295 1.154,1.295c0.636,-0 1.153,-0.581 1.153,-1.295c-0,-0 0.584,-43.038 0.301,-62.633c-0.274,-18.978 0.212,-55.854 -0.301,-55.728Z" style="fill:#fff;"/><path d="M425.293,558.374c0,-1.273 -1.033,-2.306 -2.306,-2.306c-1.273,-0 -2.306,1.033 -2.306,2.306l-0,13.617c-0,1.273 1.033,2.306 2.306,2.306c1.273,0 2.306,-1.033 2.306,-2.306l0,-13.617Z" style="fill:#fff;"/></g><g><path d="M422.546,556.417c-0.041,-0.923 -0.742,-1.644 -1.564,-1.607c-0.822,0.036 -1.457,0.815 -1.416,1.738c-0,-0 2.46,47.006 3.525,71.184c1.123,25.487 3.21,81.736 3.21,81.736c0.041,0.923 0.741,1.643 1.564,1.607c0.822,-0.036 1.456,-0.815 1.416,-1.738c-0,-0 -1.695,-55.637 -3.175,-80.938c-1.433,-24.504 -2.905,-72.175 -3.56,-71.982Z" style="fill:#fff;"/><path d="M423.285,537.737c-0.073,-1.645 -1.467,-2.921 -3.111,-2.849c-1.645,0.073 -2.921,1.467 -2.849,3.111l0.775,17.593c0.073,1.644 1.467,2.921 3.111,2.848c1.645,-0.072 2.921,-1.466 2.849,-3.111l-0.775,-17.592Z" style="fill:#fff;"/></g><g><path d="M426.823,550.486c-0.041,-0.923 -0.741,-1.643 -1.564,-1.607c-0.822,0.036 -1.457,0.815 -1.416,1.738c0,0 2.461,47.006 3.526,71.185c1.122,25.487 3.209,81.735 3.209,81.735c0.041,0.924 0.742,1.644 1.564,1.608c0.822,-0.037 1.457,-0.816 1.416,-1.739c0,0 -1.694,-55.637 -3.175,-80.938c-1.433,-24.504 -2.904,-72.175 -3.56,-71.982Z" style="fill:#fff;"/><path d="M427.562,531.806c-0.072,-1.644 -1.466,-2.921 -3.111,-2.848c-1.644,0.072 -2.921,1.466 -2.848,3.111l0.775,17.592c0.072,1.645 1.466,2.921 3.11,2.849c1.645,-0.073 2.921,-1.467 2.849,-3.111l-0.775,-17.593Z" style="fill:#fff;"/></g><g><path d="M400.144,545.758c-0.2,-0.824 -0.958,-1.349 -1.693,-1.171c-0.734,0.179 -1.167,0.992 -0.967,1.817c-0,-0 10.538,41.893 15.777,63.477c5.523,22.752 17.361,73.034 17.361,73.034c0.2,0.825 0.959,1.349 1.693,1.171c0.734,-0.178 1.167,-0.992 0.967,-1.816c0,-0 -11.376,-49.801 -17.188,-72.323c-5.629,-21.812 -15.394,-64.479 -15.95,-64.189Z" style="fill:#fff;"/><path d="M397.503,528.806c-0.357,-1.468 -1.838,-2.371 -3.306,-2.015c-1.468,0.357 -2.371,1.838 -2.014,3.306l3.812,15.705c0.356,1.468 1.838,2.371 3.306,2.014c1.468,-0.356 2.37,-1.837 2.014,-3.305l-3.812,-15.705Z" style="fill:#fff;"/></g><g><path d="M413.944,530.808c-0.025,-1.029 -0.882,-1.845 -1.912,-1.819c-1.03,0.025 -1.845,0.882 -1.82,1.912c0,-0 3.633,52.881 4.302,79.851c0.705,28.429 -0.074,90.726 -0.074,90.726c0.026,1.03 0.883,1.845 1.913,1.819c1.029,-0.025 1.845,-0.882 1.819,-1.912c0,0 0.8,-61.406 0.096,-89.836c-0.676,-27.267 -4.324,-80.741 -4.324,-80.741Z" style="fill:#fff;"/><path d="M415.761,510.399c-0.051,-2.06 -1.765,-3.691 -3.825,-3.64c-2.059,0.051 -3.69,1.765 -3.639,3.825l0.466,18.807c0.051,2.06 1.765,3.691 3.824,3.64c2.06,-0.051 3.691,-1.765 3.64,-3.825l-0.466,-18.807Z" style="fill:#fff;"/></g><g><path d="M421.003,535.294c0,-0.916 -0.744,-1.66 -1.66,-1.66c-0.916,0 -1.66,0.744 -1.66,1.66c0,0 2.065,47.097 2.065,71.092c-0,25.292 -2.065,80.664 -2.065,80.664c0,0.916 0.744,1.66 1.66,1.66c0.916,-0 1.66,-0.744 1.66,-1.66c0,-0 2.065,-54.58 2.065,-79.873c-0,-24.258 -2.065,-71.883 -2.065,-71.883Z" style="fill:#fff;"/><path d="M423.068,517.188c-0,-1.833 -1.488,-3.321 -3.32,-3.321c-1.833,0 -3.32,1.488 -3.32,3.321l-0,16.732c-0,1.832 1.487,3.32 3.32,3.32c1.832,0 3.32,-1.488 3.32,-3.32l-0,-16.732Z" style="fill:#fff;"/></g><rect x="405.268" y="595.702" width="6.487" height="35.64" style="fill:#fff;"/><rect x="403.995" y="585.841" width="6.145" height="46.471" style="fill:#fff;"/><rect x="432.979" y="594.638" width="6.487" height="35.64" style="fill:#fff;"/><rect x="421.431" y="598.251" width="6.487" height="35.64" style="fill:#fff;"/><rect x="409.778" y="604.578" width="6.487" height="35.64" style="fill:#fff;"/><rect x="415.913" y="569.273" width="6.487" height="35.64" style="fill:#fff;"/></g></g></g></g></svg>