<?xml version="1.0" encoding="UTF-8" standalone="no"?>
<!DOCTYPE svg PUBLIC "-//W3C//DTD SVG 1.1//EN" "http://www.w3.org/Graphics/SVG/1.1/DTD/svg11.dtd">
<svg width="100%" height="100%" viewBox="0 0 54 53" version="1.1" xmlns="http://www.w3.org/2000/svg" xmlns:xlink="http://www.w3.org/1999/xlink" xml:space="preserve" xmlns:serif="http://www.serif.com/" style="fill-rule:evenodd;clip-rule:evenodd;stroke-linecap:round;stroke-linejoin:round;stroke-miterlimit:1.5;">
    <g transform="matrix(1,0,0,1,-64,0)">
        <g id="Artboard2" transform="matrix(1,0,0,1,-38.6178,0)">
            <rect x="103" y="0" width="53" height="53" style="fill:none;"/>
            <g transform="matrix(1,0,0,1,38.6178,0)">
                <path d="M71.307,17.439C71.307,17.439 87.6,2.039 110.363,17.542" style="fill:none;stroke:white;stroke-width:1.05px;"/>
            </g>
            <g transform="matrix(1,0,0,1,38.6178,0)">
                <path d="M70.832,17.244C73.019,19.967 81.154,21.992 90.844,21.992C100.479,21.992 108.577,19.991 110.818,17.291C111.219,18.596 111.435,19.982 111.435,21.418L111.435,33.942C111.435,41.707 105.13,48.011 97.365,48.011L84.271,48.011C80.028,48.011 76.221,46.129 73.641,43.154C71.499,40.685 70.201,37.464 70.201,33.942L70.201,21.418C70.201,19.965 70.422,18.563 70.832,17.244ZM100.432,34.485C100.433,34.485 100.434,34.485 100.435,34.485C100.434,34.485 100.433,34.485 100.432,34.485ZM100.415,34.485L100.425,34.485C100.422,34.485 100.418,34.485 100.415,34.485ZM81.361,34.484C81.363,34.484 81.364,34.484 81.366,34.484L81.361,34.484ZM100.395,34.484C100.396,34.484 100.398,34.484 100.399,34.484L100.395,34.484ZM81.4,34.481L81.378,34.483C81.386,34.483 81.393,34.482 81.4,34.481ZM81.269,34.474L81.268,34.482C81.269,34.479 81.269,34.477 81.269,34.474ZM100.333,34.478L100.346,34.48C100.342,34.479 100.338,34.479 100.333,34.478ZM100.295,34.473L100.325,34.477C100.315,34.476 100.305,34.474 100.295,34.473ZM100.278,34.47L100.286,34.471C100.283,34.471 100.281,34.47 100.278,34.47ZM81.489,34.469C81.487,34.469 81.486,34.47 81.485,34.47L81.489,34.469ZM81.518,34.463L81.494,34.468C81.502,34.467 81.51,34.465 81.518,34.463ZM81.269,34.466C81.269,34.464 81.269,34.462 81.269,34.46L81.269,34.466ZM100.243,34.462L100.245,34.463L100.243,34.462ZM100.234,34.46L100.236,34.461L100.234,34.46ZM81.537,34.459C81.536,34.459 81.534,34.459 81.533,34.46C81.534,34.459 81.536,34.459 81.537,34.459ZM100.223,34.458L100.226,34.458L100.223,34.458ZM81.271,34.435C81.271,34.442 81.27,34.45 81.27,34.457L81.271,34.435ZM81.548,34.456L81.545,34.457C81.546,34.457 81.547,34.456 81.548,34.456ZM100.492,34.418C100.493,34.43 100.494,34.443 100.495,34.456C100.494,34.443 100.493,34.43 100.492,34.418ZM100.201,34.452L100.205,34.453L100.201,34.452ZM81.574,34.449L81.571,34.45L81.574,34.449ZM100.186,34.448L100.189,34.449L100.186,34.448ZM81.594,34.443L81.592,34.444L81.594,34.443ZM100.156,34.439L100.16,34.44L100.156,34.439ZM100.123,34.427L100.156,34.438C100.145,34.435 100.134,34.431 100.123,34.427ZM100.11,34.422C100.114,34.423 100.117,34.425 100.12,34.426L100.11,34.422ZM100.061,34.401C100.077,34.408 100.092,34.415 100.108,34.421L100.105,34.42C100.09,34.414 100.076,34.408 100.061,34.401ZM81.273,34.412L81.274,34.41L81.273,34.412ZM100.056,34.399C100.057,34.399 100.059,34.4 100.06,34.401C100.059,34.4 100.057,34.399 100.056,34.399ZM100.013,34.377C100.025,34.384 100.038,34.39 100.05,34.396C100.038,34.39 100.025,34.384 100.013,34.377ZM81.279,34.372C81.278,34.376 81.277,34.381 81.277,34.385L81.279,34.372ZM100.486,34.377C100.487,34.38 100.487,34.382 100.487,34.385C100.487,34.382 100.487,34.38 100.486,34.377ZM100.484,34.362C100.485,34.367 100.485,34.371 100.486,34.376C100.485,34.371 100.485,34.367 100.484,34.362ZM99.992,34.366C99.993,34.366 99.994,34.367 99.995,34.368C99.994,34.367 99.993,34.366 99.992,34.366ZM81.282,34.353L81.28,34.366C81.28,34.362 81.281,34.357 81.282,34.353ZM81.784,34.359C81.782,34.36 81.781,34.361 81.779,34.362C81.781,34.361 81.782,34.36 81.784,34.359ZM99.973,34.355C99.976,34.357 99.979,34.359 99.982,34.36L99.973,34.355ZM100.478,34.331C100.48,34.341 100.482,34.35 100.483,34.36C100.482,34.35 100.48,34.341 100.478,34.331ZM99.948,34.34C99.953,34.343 99.958,34.346 99.963,34.349C99.958,34.346 99.953,34.343 99.948,34.34ZM81.284,34.345C81.283,34.346 81.283,34.347 81.283,34.348C81.283,34.347 81.283,34.346 81.284,34.345ZM81.289,34.321C81.287,34.327 81.286,34.334 81.284,34.341C81.286,34.334 81.287,34.327 81.289,34.321ZM81.818,34.338L81.816,34.34L81.818,34.338ZM99.931,34.328L99.939,34.333C99.936,34.332 99.933,34.33 99.931,34.328ZM100.471,34.302C100.473,34.31 100.475,34.319 100.477,34.327C100.475,34.319 100.473,34.31 100.471,34.302ZM99.919,34.32C99.922,34.322 99.925,34.324 99.928,34.326C99.925,34.324 99.922,34.322 99.919,34.32ZM81.857,34.312C81.855,34.313 81.852,34.315 81.85,34.317C81.852,34.315 81.855,34.313 81.857,34.312ZM99.907,34.312L99.911,34.314L99.907,34.312ZM81.292,34.307L81.29,34.314C81.291,34.312 81.291,34.31 81.292,34.307ZM81.863,34.307C81.862,34.308 81.86,34.309 81.859,34.31C81.86,34.309 81.862,34.308 81.863,34.307ZM99.892,34.3C99.894,34.302 99.897,34.304 99.899,34.306C99.897,34.304 99.894,34.302 99.892,34.3ZM100.393,34.099C100.427,34.162 100.453,34.229 100.471,34.3C100.453,34.229 100.427,34.162 100.393,34.099ZM81.303,34.266L81.3,34.273C81.298,34.282 81.296,34.291 81.293,34.3L81.301,34.272C81.301,34.27 81.302,34.268 81.303,34.266ZM81.88,34.294L81.877,34.296L81.88,34.294ZM99.876,34.288L99.881,34.292C99.879,34.291 99.878,34.289 99.876,34.288ZM81.891,34.286C81.891,34.286 81.89,34.287 81.889,34.287C81.89,34.287 81.891,34.286 81.891,34.286ZM99.798,34.219C99.82,34.241 99.843,34.262 99.868,34.281C99.843,34.262 99.82,34.241 99.798,34.219ZM81.954,34.231L81.952,34.232L81.954,34.231ZM81.977,34.208L81.974,34.211L81.977,34.208ZM81.982,34.203C81.981,34.204 81.98,34.205 81.979,34.206L81.982,34.203ZM81.323,34.205C81.323,34.204 81.324,34.203 81.324,34.202L81.323,34.205ZM99.769,34.188L99.776,34.196C99.774,34.194 99.771,34.191 99.769,34.188ZM81.338,34.166C81.335,34.175 81.331,34.183 81.328,34.192C81.331,34.183 81.335,34.175 81.338,34.166ZM99.743,34.159C99.749,34.166 99.756,34.173 99.762,34.18C99.756,34.173 99.749,34.166 99.743,34.159ZM99.728,34.14C99.731,34.144 99.734,34.147 99.737,34.151C99.734,34.147 99.731,34.144 99.728,34.14ZM99.55,33.717C99.57,33.873 99.632,34.016 99.724,34.135C99.632,34.016 99.57,33.873 99.55,33.717ZM81.365,34.11C81.363,34.114 81.361,34.118 81.359,34.123C81.361,34.118 81.363,34.114 81.365,34.11ZM82.061,34.107L82.059,34.109L82.061,34.107ZM82.07,34.094C82.068,34.097 82.065,34.101 82.063,34.105L82.07,34.094ZM100.352,34.03C100.366,34.052 100.38,34.074 100.393,34.098C100.38,34.074 100.366,34.052 100.352,34.03ZM81.378,34.087C81.376,34.09 81.374,34.093 81.372,34.097C81.374,34.093 81.376,34.09 81.378,34.087ZM82.081,34.078C82.079,34.08 82.078,34.082 82.077,34.084C82.078,34.082 82.079,34.08 82.081,34.078ZM82.086,34.069L82.087,34.068L82.086,34.069ZM82.089,34.065L82.09,34.063L82.089,34.065ZM82.097,34.052C82.096,34.054 82.095,34.055 82.095,34.056C82.095,34.055 82.096,34.054 82.097,34.052ZM82.118,34.015C82.117,34.017 82.116,34.019 82.115,34.022L82.118,34.015ZM100.343,34.017L100.343,34.017L100.343,34.017ZM100.337,34.008C100.338,34.009 100.339,34.011 100.34,34.012C100.339,34.011 100.338,34.009 100.337,34.008ZM100.277,33.933C100.298,33.956 100.317,33.98 100.335,34.005C100.317,33.98 100.298,33.956 100.277,33.933ZM81.467,33.956C81.463,33.961 81.46,33.965 81.456,33.97C81.46,33.965 81.463,33.961 81.467,33.956ZM81.489,33.93L81.482,33.938C81.478,33.943 81.474,33.948 81.47,33.953C81.475,33.947 81.479,33.942 81.484,33.936C81.486,33.934 81.488,33.932 81.489,33.93ZM81.518,33.9L81.495,33.925C81.502,33.916 81.51,33.908 81.518,33.9ZM100.258,33.912C100.261,33.915 100.264,33.918 100.267,33.922C100.264,33.918 100.261,33.915 100.258,33.912ZM100.252,33.906L100.254,33.908L100.252,33.906ZM100.25,33.903L100.251,33.904L100.25,33.903ZM81.568,33.853C81.553,33.866 81.538,33.879 81.524,33.894C81.538,33.879 81.553,33.866 81.568,33.853ZM100.235,33.889C100.234,33.888 100.234,33.887 100.233,33.887L100.235,33.889ZM100.222,33.876L100.226,33.88C100.224,33.878 100.223,33.877 100.222,33.876ZM100.193,33.85L100.195,33.852L100.193,33.85ZM81.715,33.749C81.664,33.778 81.616,33.812 81.571,33.85C81.615,33.812 81.664,33.778 81.715,33.749ZM82.189,33.841L82.189,33.842L82.189,33.841ZM100.181,33.84L100.184,33.842L100.181,33.84ZM100.17,33.831C100.173,33.833 100.176,33.836 100.179,33.838L100.17,33.831ZM100.134,33.803C100.145,33.811 100.156,33.819 100.167,33.828C100.156,33.819 100.145,33.811 100.134,33.803ZM82.198,33.808L82.197,33.811L82.198,33.808ZM100.122,33.795L100.125,33.796L100.122,33.795ZM100.117,33.791L100.12,33.793L100.117,33.791ZM100.105,33.783L100.117,33.791C100.113,33.788 100.109,33.786 100.105,33.783ZM100.087,33.771C100.093,33.775 100.098,33.778 100.103,33.781C100.098,33.778 100.093,33.775 100.087,33.771ZM100.051,33.749C100.062,33.756 100.074,33.763 100.085,33.77C100.074,33.763 100.062,33.756 100.051,33.749ZM82.21,33.749C82.209,33.751 82.209,33.753 82.209,33.755C82.209,33.753 82.209,33.751 82.21,33.749ZM99.883,33.674C99.94,33.693 99.994,33.717 100.045,33.746L100.047,33.747C99.995,33.718 99.94,33.693 99.883,33.674ZM81.756,33.727L81.726,33.742C81.723,33.744 81.721,33.745 81.718,33.747L81.729,33.741C81.738,33.736 81.747,33.731 81.756,33.727ZM81.773,33.718C81.768,33.72 81.763,33.723 81.758,33.726C81.763,33.723 81.768,33.72 81.773,33.718ZM82.214,33.719C82.214,33.72 82.214,33.722 82.214,33.723C82.214,33.722 82.214,33.72 82.214,33.719ZM81.926,33.661C81.874,33.675 81.824,33.694 81.776,33.717C81.824,33.694 81.874,33.675 81.926,33.661ZM99.546,33.686C99.547,33.693 99.548,33.7 99.549,33.707C99.548,33.7 99.547,33.693 99.546,33.686ZM82.217,33.699L82.216,33.702L82.217,33.699ZM99.824,33.657C99.844,33.662 99.863,33.668 99.882,33.674C99.863,33.668 99.844,33.662 99.824,33.657ZM99.545,33.665L99.545,33.668L99.545,33.665ZM81.946,33.656C81.94,33.657 81.933,33.659 81.927,33.661C81.933,33.659 81.94,33.657 81.946,33.656ZM99.79,33.649L99.82,33.656C99.81,33.654 99.8,33.651 99.79,33.649ZM81.971,33.65L81.948,33.655C81.956,33.653 81.963,33.652 81.971,33.65ZM99.543,33.645L99.544,33.652C99.544,33.649 99.544,33.647 99.543,33.645ZM81.985,33.647L81.979,33.648L81.985,33.647ZM99.785,33.648L99.782,33.647L99.785,33.648ZM99.776,33.646C99.777,33.646 99.778,33.647 99.779,33.647L99.776,33.646ZM82.221,33.636C82.221,33.639 82.221,33.643 82.221,33.647C82.221,33.643 82.221,33.639 82.221,33.636ZM99.773,33.646L99.776,33.646L99.773,33.646ZM82.012,33.642C82.006,33.643 81.999,33.644 81.993,33.645L82.012,33.642ZM99.683,33.632C99.713,33.635 99.742,33.639 99.77,33.645C99.741,33.639 99.711,33.635 99.68,33.632L99.683,33.632ZM82.04,33.637C82.036,33.638 82.031,33.639 82.026,33.639C82.031,33.639 82.036,33.638 82.04,33.637ZM82.056,33.635L82.053,33.636L82.056,33.635ZM82.067,33.634L82.065,33.634L82.067,33.634ZM82.087,33.632C82.083,33.632 82.079,33.632 82.074,33.633C82.079,33.632 82.083,33.632 82.087,33.632ZM82.098,33.631L82.097,33.631L82.098,33.631ZM99.644,33.629L99.65,33.63C99.648,33.629 99.646,33.629 99.644,33.629ZM99.632,33.629C99.63,33.629 99.628,33.628 99.627,33.628L99.632,33.629ZM82.175,33.628C82.17,33.628 82.165,33.628 82.16,33.628C82.165,33.628 82.17,33.628 82.175,33.628ZM78.788,31.185L78.783,31.185L78.788,31.185ZM78.796,31.185L78.791,31.185L78.796,31.185ZM102.959,31.185L102.964,31.185L102.959,31.185ZM102.937,31.184C102.942,31.184 102.947,31.184 102.952,31.184C102.947,31.184 102.942,31.184 102.937,31.184ZM78.818,31.184C78.816,31.184 78.814,31.184 78.812,31.184C78.814,31.184 78.816,31.184 78.818,31.184ZM78.866,31.181C78.852,31.182 78.837,31.183 78.823,31.184C78.837,31.183 78.852,31.182 78.866,31.181ZM102.917,31.182C102.923,31.183 102.928,31.183 102.934,31.184C102.928,31.183 102.923,31.183 102.917,31.182ZM102.879,31.179C102.89,31.18 102.902,31.181 102.913,31.182C102.902,31.181 102.89,31.18 102.879,31.179ZM78.889,31.178C78.882,31.179 78.876,31.18 78.869,31.181C78.876,31.18 78.882,31.179 78.889,31.178ZM102.839,31.173C102.852,31.175 102.865,31.177 102.878,31.179C102.865,31.177 102.852,31.175 102.839,31.173ZM78.597,31.163C78.597,31.168 78.596,31.173 78.595,31.178C78.596,31.173 78.597,31.168 78.597,31.163ZM78.891,31.178C78.892,31.178 78.893,31.178 78.894,31.178L78.891,31.178ZM78.92,31.174C78.919,31.174 78.917,31.174 78.915,31.175C78.917,31.174 78.919,31.174 78.92,31.174ZM78.925,31.173C78.926,31.173 78.927,31.173 78.927,31.173L78.925,31.173ZM102.827,31.171C102.831,31.172 102.834,31.172 102.838,31.173C102.834,31.172 102.831,31.172 102.827,31.171ZM78.952,31.168C78.945,31.17 78.938,31.171 78.931,31.172C78.938,31.171 78.945,31.17 78.952,31.168ZM102.822,31.17L102.824,31.171L102.822,31.17ZM102.752,31.155C102.773,31.16 102.796,31.165 102.818,31.17C102.796,31.165 102.773,31.16 102.752,31.155ZM78.991,31.16C78.979,31.163 78.967,31.166 78.955,31.168C78.967,31.166 78.979,31.163 78.991,31.16ZM79.054,31.143C79.038,31.148 79.022,31.152 79.005,31.157C79.022,31.152 79.038,31.148 79.054,31.143ZM102.741,31.152C102.744,31.153 102.747,31.153 102.75,31.154C102.747,31.153 102.744,31.153 102.741,31.152ZM102.737,31.151L102.74,31.152L102.737,31.151ZM102.73,31.149L102.734,31.15C102.733,31.15 102.731,31.149 102.73,31.149ZM102.724,31.147L102.725,31.147L102.724,31.147ZM102.721,31.146C102.713,31.143 102.705,31.141 102.696,31.138C102.704,31.141 102.713,31.143 102.721,31.146ZM79.059,31.141L79.055,31.142C79.056,31.142 79.058,31.141 79.059,31.141ZM79.079,31.134L79.07,31.138L79.079,31.134ZM102.662,31.126C102.673,31.13 102.684,31.134 102.695,31.138C102.684,31.134 102.673,31.13 102.662,31.126ZM103.161,31.128C103.161,31.131 103.162,31.134 103.162,31.137C103.162,31.134 103.161,31.131 103.161,31.128ZM79.114,31.121C79.105,31.125 79.095,31.129 79.086,31.132C79.095,31.129 79.105,31.125 79.114,31.121ZM102.613,31.106C102.628,31.112 102.643,31.119 102.659,31.125C102.643,31.118 102.627,31.112 102.611,31.105L102.613,31.106ZM103.157,31.112L103.159,31.122C103.159,31.118 103.158,31.115 103.157,31.112ZM79.176,31.094C79.162,31.101 79.148,31.107 79.134,31.113C79.129,31.115 79.124,31.117 79.119,31.119L79.134,31.113C79.148,31.107 79.162,31.101 79.176,31.094ZM78.607,31.112C78.607,31.114 78.606,31.116 78.606,31.118C78.606,31.116 78.607,31.114 78.607,31.112ZM103.155,31.101C103.155,31.103 103.156,31.106 103.156,31.109C103.156,31.106 103.155,31.103 103.155,31.101ZM102.58,31.09C102.588,31.094 102.597,31.098 102.606,31.102C102.597,31.098 102.588,31.094 102.58,31.09ZM79.184,31.09L79.186,31.089L79.184,31.09ZM79.196,31.084C79.194,31.085 79.192,31.086 79.189,31.087C79.192,31.086 79.194,31.085 79.196,31.084ZM102.558,31.078C102.561,31.08 102.565,31.082 102.569,31.084C102.565,31.082 102.561,31.08 102.558,31.078ZM79.205,31.079C79.204,31.08 79.203,31.08 79.202,31.081L79.205,31.079ZM103.149,31.079C103.149,31.078 103.148,31.077 103.148,31.076L103.149,31.079ZM102.531,31.063C102.539,31.068 102.548,31.073 102.557,31.078C102.548,31.073 102.539,31.068 102.531,31.063ZM79.213,31.075C79.212,31.075 79.21,31.076 79.209,31.077C79.21,31.076 79.212,31.075 79.213,31.075ZM103.146,31.067L103.147,31.07L103.146,31.067ZM103.145,31.064C103.144,31.063 103.144,31.062 103.144,31.06L103.145,31.064ZM102.525,31.059L102.526,31.06L102.525,31.059ZM102.511,31.051C102.514,31.053 102.518,31.055 102.521,31.057C102.518,31.055 102.514,31.053 102.511,31.051ZM102.493,31.039C102.498,31.043 102.503,31.046 102.508,31.049C102.503,31.046 102.498,31.043 102.493,31.039ZM79.256,31.049C79.257,31.049 79.257,31.048 79.258,31.048L79.256,31.049ZM103.139,31.045C103.139,31.045 103.139,31.046 103.14,31.047C103.139,31.046 103.139,31.045 103.139,31.045ZM79.272,31.039C79.27,31.04 79.268,31.042 79.266,31.043L79.272,31.039ZM102.49,31.037L102.492,31.039L102.49,31.037ZM102.481,31.031C102.483,31.033 102.485,31.034 102.487,31.035C102.485,31.034 102.483,31.033 102.481,31.031ZM79.279,31.034L79.28,31.034L79.279,31.034ZM79.301,31.018L79.281,31.033C79.288,31.028 79.294,31.023 79.301,31.018ZM103.134,31.029C103.134,31.03 103.134,31.031 103.134,31.032C103.134,31.031 103.134,31.03 103.134,31.029ZM102.457,31.014C102.463,31.018 102.469,31.023 102.475,31.027C102.469,31.023 102.463,31.018 102.457,31.014ZM103.129,31.017L103.13,31.02L103.129,31.017ZM79.316,31.007C79.313,31.01 79.31,31.012 79.306,31.015C79.31,31.012 79.313,31.01 79.316,31.007ZM102.452,31.01C102.453,31.011 102.453,31.011 102.454,31.012C102.453,31.011 102.453,31.011 102.452,31.01ZM103.126,31.008L103.127,31.01L103.126,31.008ZM102.41,30.976C102.42,30.985 102.431,30.994 102.441,31.002L102.443,31.003C102.432,30.995 102.421,30.986 102.41,30.976ZM79.327,30.999L79.327,30.999L79.327,30.999ZM103.114,30.978C103.117,30.985 103.119,30.992 103.122,30.998C103.119,30.992 103.117,30.985 103.114,30.978ZM102.319,30.883C102.344,30.914 102.372,30.942 102.401,30.968C102.372,30.942 102.344,30.914 102.319,30.883ZM103.101,30.949C103.102,30.953 103.104,30.956 103.106,30.96C103.104,30.956 103.102,30.953 103.101,30.949ZM103.099,30.947L103.1,30.948L103.099,30.947ZM103.085,30.919L103.095,30.939C103.092,30.932 103.089,30.926 103.085,30.919ZM79.413,30.92C79.411,30.921 79.41,30.923 79.408,30.925C79.41,30.923 79.411,30.921 79.413,30.92ZM103.071,30.893L103.084,30.916C103.08,30.908 103.075,30.901 103.071,30.893ZM79.427,30.905C79.426,30.906 79.425,30.906 79.425,30.907L79.427,30.905ZM103.027,30.827C103.041,30.846 103.053,30.865 103.065,30.884C103.053,30.865 103.041,30.846 103.027,30.827ZM102.309,30.87C102.311,30.874 102.314,30.877 102.316,30.88C102.314,30.877 102.311,30.874 102.309,30.87ZM102.297,30.855C102.3,30.859 102.304,30.864 102.307,30.869C102.304,30.864 102.3,30.859 102.297,30.855ZM102.287,30.841C102.289,30.845 102.292,30.848 102.294,30.851C102.292,30.848 102.289,30.845 102.287,30.841ZM79.477,30.842L79.472,30.848L79.477,30.842ZM79.481,30.836C79.48,30.838 79.479,30.839 79.478,30.841C79.479,30.839 79.48,30.838 79.481,30.836ZM102.188,30.651C102.211,30.718 102.244,30.781 102.284,30.838C102.244,30.781 102.211,30.718 102.188,30.651ZM103.017,30.815C103.02,30.819 103.023,30.823 103.026,30.827C103.023,30.823 103.02,30.819 103.017,30.815ZM103.006,30.801C103.009,30.804 103.013,30.808 103.016,30.812C103.013,30.808 103.009,30.804 103.006,30.801ZM103,30.793L103.003,30.796L103,30.793ZM102.988,30.779C102.987,30.778 102.986,30.777 102.986,30.776L102.988,30.779ZM102.979,30.769L102.978,30.768L102.979,30.769ZM102.974,30.763L102.975,30.765L102.974,30.763ZM102.95,30.739C102.952,30.74 102.954,30.742 102.955,30.744C102.954,30.742 102.952,30.74 102.95,30.739ZM102.931,30.72L102.947,30.735L102.931,30.72ZM102.907,30.699C102.913,30.703 102.918,30.708 102.923,30.713C102.918,30.708 102.913,30.703 102.907,30.699ZM102.883,30.679L102.899,30.692C102.901,30.693 102.903,30.695 102.905,30.697L102.897,30.691C102.893,30.687 102.888,30.683 102.883,30.679ZM78.878,30.681C78.877,30.683 78.875,30.684 78.874,30.685C78.875,30.684 78.877,30.683 78.878,30.681ZM79.566,30.679C79.566,30.68 79.565,30.681 79.565,30.683C79.565,30.681 79.566,30.68 79.566,30.679ZM102.879,30.676C102.88,30.676 102.88,30.677 102.881,30.677C102.88,30.677 102.88,30.676 102.879,30.676ZM78.902,30.663L78.898,30.666C78.899,30.665 78.901,30.664 78.902,30.663ZM102.865,30.665L102.865,30.665L102.865,30.665ZM102.813,30.629L102.826,30.637C102.836,30.644 102.847,30.652 102.857,30.659L102.859,30.661C102.848,30.653 102.837,30.645 102.826,30.637L102.813,30.629ZM79.582,30.635C79.58,30.642 79.577,30.65 79.575,30.657C79.577,30.65 79.58,30.643 79.582,30.635ZM78.922,30.648C78.921,30.65 78.919,30.651 78.917,30.652C78.919,30.651 78.921,30.65 78.922,30.648ZM102.184,30.64C102.184,30.64 102.184,30.641 102.184,30.642C102.184,30.641 102.184,30.64 102.184,30.64ZM102.181,30.63C102.181,30.632 102.182,30.634 102.183,30.636C102.182,30.634 102.181,30.632 102.181,30.63ZM79.586,30.622C79.586,30.623 79.585,30.625 79.585,30.626C79.585,30.625 79.586,30.623 79.586,30.622ZM78.962,30.623C78.961,30.623 78.96,30.624 78.959,30.624C78.96,30.624 78.961,30.623 78.962,30.623ZM102.8,30.621C102.801,30.622 102.802,30.623 102.804,30.623C102.802,30.623 102.801,30.622 102.8,30.621ZM79.589,30.613C79.588,30.615 79.588,30.616 79.587,30.618C79.588,30.616 79.588,30.615 79.589,30.613ZM102.175,30.613L102.177,30.617L102.175,30.613ZM102.751,30.593L102.769,30.603L102.751,30.593ZM79.593,30.6L79.592,30.602L79.593,30.6ZM79.007,30.597C79.005,30.598 79.003,30.599 79.002,30.6L79.007,30.597ZM79.596,30.588C79.595,30.591 79.594,30.594 79.593,30.597C79.594,30.594 79.595,30.591 79.596,30.588ZM102.165,30.574C102.167,30.581 102.169,30.589 102.171,30.596C102.169,30.589 102.167,30.581 102.165,30.574ZM102.157,30.535C102.159,30.546 102.161,30.558 102.164,30.569C102.161,30.558 102.159,30.546 102.157,30.535ZM102.692,30.565L102.699,30.568L102.692,30.565ZM79.601,30.565C79.601,30.566 79.601,30.567 79.601,30.568C79.601,30.567 79.601,30.566 79.601,30.565ZM102.688,30.564C102.689,30.564 102.689,30.564 102.69,30.565C102.689,30.564 102.689,30.564 102.688,30.564ZM79.603,30.557C79.603,30.559 79.602,30.56 79.602,30.561C79.602,30.56 79.603,30.559 79.603,30.557ZM102.664,30.554L102.664,30.554L102.664,30.554ZM79.605,30.547C79.605,30.549 79.604,30.551 79.604,30.554C79.604,30.551 79.605,30.549 79.605,30.547ZM102.645,30.547C102.648,30.548 102.652,30.549 102.655,30.551L102.645,30.547ZM102.641,30.545L102.643,30.546L102.641,30.545ZM102.635,30.543L102.634,30.543L102.635,30.543ZM102.624,30.54C102.627,30.54 102.629,30.541 102.631,30.542L102.624,30.54ZM102.62,30.538C102.621,30.538 102.622,30.539 102.622,30.539C102.622,30.539 102.621,30.538 102.62,30.538ZM102.604,30.533C102.608,30.534 102.613,30.536 102.617,30.537C102.613,30.536 102.608,30.534 102.604,30.533ZM79.608,30.531L79.607,30.537C79.607,30.535 79.608,30.533 79.608,30.531ZM102.596,30.531C102.597,30.531 102.599,30.531 102.6,30.532L102.596,30.531ZM102.155,30.526C102.156,30.527 102.156,30.529 102.156,30.53C102.156,30.529 102.156,30.527 102.155,30.526ZM102.553,30.519C102.565,30.522 102.577,30.525 102.589,30.529C102.577,30.525 102.565,30.522 102.553,30.519ZM79.61,30.52L79.609,30.528C79.609,30.525 79.609,30.523 79.61,30.52ZM102.545,30.517C102.547,30.517 102.549,30.518 102.551,30.518C102.549,30.518 102.547,30.517 102.545,30.517ZM102.535,30.515C102.536,30.515 102.537,30.515 102.538,30.515C102.537,30.515 102.536,30.515 102.535,30.515ZM79.613,30.5C79.612,30.505 79.611,30.51 79.611,30.515C79.611,30.51 79.612,30.505 79.613,30.5ZM102.505,30.509L102.532,30.514C102.523,30.512 102.514,30.51 102.505,30.509ZM102.496,30.507L102.502,30.508C102.5,30.508 102.498,30.507 102.496,30.507ZM102.486,30.505L102.495,30.507C102.492,30.506 102.489,30.506 102.486,30.505ZM79.332,30.498L79.318,30.5C79.322,30.499 79.327,30.499 79.332,30.498ZM102.422,30.497C102.425,30.497 102.428,30.497 102.43,30.498C102.428,30.497 102.425,30.497 102.422,30.497ZM79.351,30.496L79.351,30.496L79.351,30.496ZM102.398,30.495L102.411,30.496C102.407,30.496 102.402,30.495 102.398,30.495ZM79.361,30.495L79.36,30.495L79.361,30.495ZM102.391,30.494C102.392,30.495 102.393,30.495 102.394,30.495C102.393,30.495 102.392,30.495 102.391,30.494ZM79.38,30.494L79.382,30.494L79.38,30.494ZM102.372,30.493C102.375,30.494 102.378,30.494 102.381,30.494L102.372,30.493ZM79.393,30.493L79.39,30.494L79.393,30.493ZM102.365,30.493L102.368,30.493L102.365,30.493ZM102.348,30.493C102.351,30.493 102.353,30.493 102.356,30.493C102.353,30.493 102.351,30.493 102.348,30.493ZM102.342,30.493L102.346,30.493C102.345,30.493 102.343,30.493 102.342,30.493ZM105.812,28.134L105.812,28.108C105.812,28.117 105.812,28.125 105.812,28.134ZM75.96,28.472C75.959,28.472 75.958,28.472 75.957,28.472C75.958,28.472 75.959,28.472 75.96,28.472ZM76.424,28.231C76.305,28.359 76.147,28.446 75.963,28.471C76.147,28.446 76.305,28.359 76.424,28.231ZM105.789,28.469L105.791,28.47L105.789,28.469ZM105.765,28.465C105.765,28.465 105.766,28.466 105.767,28.466C105.766,28.466 105.765,28.465 105.765,28.465ZM105.756,28.464L105.76,28.464L105.756,28.464ZM105.748,28.462L105.752,28.463L105.748,28.462ZM105.731,28.458L105.733,28.459L105.731,28.458ZM105.404,28.292C105.406,28.294 105.408,28.296 105.411,28.298C105.408,28.296 105.406,28.294 105.404,28.292ZM105.388,28.277L105.39,28.279L105.388,28.277ZM105.371,28.261L105.373,28.264L105.371,28.261ZM105.364,28.255L105.368,28.259C105.367,28.257 105.365,28.256 105.364,28.255ZM105.356,28.247C105.358,28.249 105.36,28.251 105.361,28.252C105.36,28.251 105.358,28.249 105.356,28.247ZM105.331,28.22L105.336,28.226C105.334,28.224 105.333,28.222 105.331,28.22ZM76.441,28.211C76.438,28.215 76.435,28.218 76.431,28.222C76.435,28.218 76.438,28.215 76.441,28.211ZM105.322,28.21C105.323,28.211 105.323,28.211 105.324,28.212C105.323,28.211 105.323,28.211 105.322,28.21ZM76.446,28.206L76.443,28.208C76.444,28.208 76.445,28.207 76.446,28.206ZM76.52,28.104C76.499,28.138 76.475,28.171 76.449,28.201C76.475,28.171 76.499,28.138 76.52,28.104ZM105.311,28.196L105.314,28.2L105.311,28.196ZM105.307,28.192L105.305,28.189L105.307,28.192ZM105.296,28.179L105.303,28.187L105.296,28.179ZM75.952,28.126L75.952,28.134L75.952,28.126ZM105.259,28.127C105.26,28.128 105.261,28.129 105.262,28.131C105.261,28.129 105.26,28.128 105.259,28.127ZM75.952,28.121L75.952,28.124L75.952,28.121ZM105.248,28.109L105.25,28.113C105.25,28.112 105.249,28.11 105.248,28.109ZM105.239,28.094C105.24,28.097 105.242,28.099 105.244,28.102C105.242,28.099 105.24,28.097 105.239,28.094ZM76.576,27.996C76.56,28.032 76.542,28.066 76.522,28.099L76.521,28.101C76.542,28.068 76.56,28.033 76.576,27.996ZM105.194,28.009C105.207,28.037 105.221,28.064 105.236,28.089L105.237,28.091C105.222,28.065 105.207,28.038 105.194,28.009ZM75.955,28.059C75.955,28.06 75.955,28.062 75.955,28.063C75.955,28.062 75.955,28.06 75.955,28.059ZM75.956,28.044C75.956,28.046 75.956,28.048 75.956,28.049C75.956,28.048 75.956,28.046 75.956,28.044ZM105.806,28.025C105.807,28.033 105.808,28.042 105.809,28.051C105.808,28.042 105.807,28.034 105.806,28.025ZM75.96,28.01C75.959,28.019 75.958,28.028 75.957,28.037C75.958,28.028 75.959,28.019 75.96,28.01ZM105.804,28.013C105.805,28.015 105.805,28.017 105.805,28.019C105.805,28.017 105.805,28.015 105.804,28.013ZM105.191,28.001L105.193,28.007C105.193,28.005 105.192,28.003 105.191,28.001ZM105.801,27.988C105.801,27.991 105.802,27.993 105.802,27.995C105.802,27.993 105.801,27.991 105.801,27.988ZM76.578,27.99C76.578,27.991 76.578,27.991 76.577,27.992C76.578,27.991 76.578,27.991 76.578,27.99ZM75.963,27.99C75.963,27.988 75.964,27.987 75.964,27.986L75.963,27.99ZM105.8,27.981C105.8,27.982 105.8,27.983 105.8,27.984C105.8,27.983 105.8,27.982 105.8,27.981ZM105.181,27.979C105.182,27.981 105.183,27.983 105.184,27.985C105.183,27.983 105.182,27.981 105.181,27.979ZM76.582,27.981C76.582,27.982 76.581,27.983 76.581,27.984C76.581,27.983 76.582,27.982 76.582,27.981ZM76.607,27.913C76.6,27.936 76.592,27.958 76.583,27.98C76.592,27.958 76.6,27.936 76.607,27.913ZM105.177,27.968C105.178,27.971 105.179,27.973 105.18,27.976C105.179,27.973 105.178,27.971 105.177,27.968ZM75.967,27.965C75.967,27.967 75.966,27.97 75.966,27.972C75.966,27.97 75.967,27.967 75.967,27.965ZM105.794,27.95C105.795,27.955 105.796,27.96 105.797,27.966C105.796,27.96 105.795,27.955 105.794,27.95ZM105.17,27.949C105.171,27.953 105.173,27.957 105.175,27.962C105.173,27.958 105.171,27.953 105.17,27.949ZM75.972,27.939C75.972,27.942 75.971,27.944 75.971,27.947C75.971,27.944 75.972,27.942 75.972,27.939ZM105.169,27.946C105.169,27.946 105.168,27.945 105.168,27.944L105.169,27.946ZM105.157,27.913C105.16,27.922 105.164,27.932 105.167,27.941C105.164,27.932 105.16,27.922 105.157,27.913ZM105.788,27.922C105.788,27.923 105.789,27.924 105.789,27.926C105.789,27.924 105.788,27.923 105.788,27.922ZM105.786,27.913C105.786,27.915 105.787,27.916 105.787,27.918C105.787,27.916 105.786,27.915 105.786,27.913ZM105.784,27.906C105.784,27.907 105.785,27.907 105.785,27.908C105.785,27.907 105.784,27.907 105.784,27.906ZM105.156,27.909C105.156,27.908 105.156,27.907 105.155,27.906L105.156,27.909ZM105.152,27.895C105.153,27.898 105.154,27.901 105.154,27.904C105.154,27.901 105.153,27.898 105.152,27.895ZM105.779,27.888C105.78,27.89 105.781,27.892 105.781,27.895C105.781,27.892 105.78,27.89 105.779,27.888ZM76.614,27.891L76.613,27.893L76.614,27.891ZM105.141,27.853C105.144,27.866 105.147,27.879 105.151,27.891C105.147,27.879 105.144,27.866 105.141,27.853ZM76.616,27.883L76.615,27.887L76.616,27.883ZM105.775,27.874C105.777,27.878 105.778,27.882 105.779,27.885C105.778,27.882 105.777,27.878 105.775,27.874ZM76.621,27.864C76.62,27.867 76.619,27.87 76.619,27.873C76.619,27.87 76.62,27.867 76.621,27.864ZM105.772,27.862C105.773,27.865 105.774,27.868 105.774,27.871C105.774,27.868 105.773,27.865 105.772,27.862ZM76.624,27.853L76.622,27.86C76.623,27.858 76.623,27.856 76.624,27.853ZM105.769,27.853C105.769,27.854 105.77,27.855 105.77,27.855C105.77,27.855 105.769,27.854 105.769,27.853ZM105.138,27.842C105.139,27.845 105.139,27.848 105.14,27.851C105.139,27.848 105.139,27.845 105.138,27.842ZM76.624,27.85L76.624,27.851L76.624,27.85ZM76.626,27.841C76.626,27.842 76.626,27.843 76.626,27.844C76.626,27.843 76.626,27.842 76.626,27.841ZM105.763,27.834C105.764,27.836 105.764,27.838 105.765,27.84L105.763,27.834ZM105.132,27.816L105.134,27.824L105.132,27.816ZM76.633,27.813L76.632,27.814L76.633,27.813ZM105.743,27.782C105.747,27.79 105.75,27.799 105.753,27.807C105.75,27.799 105.747,27.79 105.743,27.782ZM76.644,27.74C76.642,27.757 76.639,27.775 76.636,27.792L76.636,27.794C76.639,27.776 76.642,27.758 76.644,27.74ZM105.125,27.776L105.127,27.786L105.125,27.776ZM76.022,27.781C76.022,27.78 76.023,27.779 76.023,27.778L76.022,27.781ZM105.739,27.773C105.74,27.775 105.741,27.777 105.742,27.78C105.741,27.777 105.74,27.775 105.739,27.773ZM105.121,27.748C105.122,27.756 105.123,27.763 105.124,27.77C105.123,27.763 105.122,27.756 105.121,27.748ZM76.074,27.676C76.061,27.698 76.049,27.72 76.038,27.743C76.049,27.72 76.061,27.698 76.074,27.676ZM105.12,27.738L105.12,27.74L105.12,27.738ZM76.645,27.728C76.645,27.731 76.645,27.733 76.644,27.736C76.645,27.733 76.645,27.731 76.645,27.728ZM105.115,27.672C105.116,27.691 105.117,27.71 105.119,27.728C105.117,27.71 105.116,27.691 105.115,27.672ZM76.646,27.718L76.646,27.721L76.646,27.718ZM76.649,27.684L76.649,27.681L76.649,27.684ZM76.082,27.664C76.08,27.667 76.078,27.67 76.076,27.673C76.078,27.67 76.08,27.667 76.082,27.664ZM76.101,27.634L76.094,27.643C76.091,27.649 76.087,27.655 76.083,27.661L76.096,27.641C76.097,27.639 76.099,27.636 76.101,27.634ZM76.123,27.603C76.117,27.611 76.111,27.618 76.106,27.626C76.111,27.618 76.117,27.611 76.123,27.603ZM105.646,27.609L105.647,27.609L105.646,27.609ZM76.133,27.589L76.127,27.596C76.129,27.594 76.131,27.592 76.133,27.589ZM105.636,27.595L105.635,27.594L105.636,27.595ZM76.609,27.299C76.416,27.333 76.253,27.437 76.137,27.584C76.253,27.437 76.416,27.333 76.609,27.299ZM105.358,27.365L105.361,27.366L105.358,27.365ZM105.351,27.362C105.352,27.362 105.354,27.363 105.355,27.363C105.354,27.363 105.352,27.362 105.351,27.362ZM76.614,27.298L76.611,27.299L76.614,27.298ZM105.138,27.297L105.141,27.297L105.138,27.297ZM76.646,27.294C76.641,27.294 76.636,27.295 76.631,27.296C76.636,27.295 76.641,27.294 76.646,27.294ZM79.43,30.493L79.418,30.493C79.422,30.493 79.426,30.493 79.43,30.493ZM102.989,31.185L102.981,31.185C102.983,31.185 102.986,31.185 102.989,31.185ZM99.677,33.632L99.672,33.631C99.674,33.631 99.676,33.632 99.677,33.632ZM99.624,33.628L99.595,33.628L99.624,33.628ZM96.533,36.886L94.651,36.886C94.131,36.886 93.71,37.308 93.71,37.827L93.71,39.938L93.776,40.097L94.371,40.344L94.581,40.85L94.651,40.879L96.533,40.879C97.053,40.879 97.475,40.457 97.475,39.938L97.475,37.827L97.323,37.461L97.707,37.62L99.589,37.62C100.109,37.62 100.531,37.199 100.531,36.679L100.531,34.569L100.496,34.485L102.332,34.485C102.851,34.485 103.273,34.064 103.273,33.544L103.273,31.434L103.17,31.185L104.871,31.185C105.39,31.185 105.812,30.763 105.812,30.244L105.812,28.473L106.056,28.573L107.938,28.573C108.457,28.573 108.879,28.152 108.879,27.632L108.879,25.522C108.879,25.003 108.457,24.581 107.938,24.581L106.056,24.581C105.536,24.581 105.114,25.003 105.114,25.522L105.114,27.293L104.871,27.192L102.989,27.192C102.469,27.192 102.047,27.614 102.047,28.134L102.047,30.244L102.15,30.493L100.449,30.493C99.93,30.493 99.508,30.914 99.508,31.434L99.508,33.544L99.543,33.628L97.707,33.628C97.188,33.628 96.766,34.049 96.766,34.569L96.766,36.679L96.918,37.046L96.533,36.886ZM79.337,30.497C79.336,30.498 79.335,30.498 79.334,30.498L79.337,30.497ZM76.65,27.635L76.65,27.66C76.65,27.651 76.65,27.643 76.65,27.635ZM78.594,31.185L78.491,31.434L78.491,33.544C78.491,34.064 78.913,34.485 79.433,34.485L81.268,34.485L81.234,34.569L81.234,36.679C81.234,37.199 81.655,37.62 82.175,37.62L84.057,37.62L84.442,37.461L84.29,37.827L84.29,39.938C84.29,40.457 84.712,40.879 85.231,40.879L87.113,40.879L87.183,40.85L87.117,41.009L87.117,43.119C87.117,43.639 87.539,44.061 88.059,44.061L89.941,44.061C90.46,44.061 90.882,43.639 90.882,43.119L90.882,43.122C90.884,43.64 91.305,44.061 91.823,44.061L93.706,44.061C94.225,44.061 94.647,43.639 94.647,43.119L94.647,41.009L94.371,40.344L93.706,40.068L91.823,40.068C91.304,40.068 90.882,40.49 90.882,41.009C90.882,40.49 90.46,40.068 89.941,40.068L88.059,40.068L87.989,40.097L88.055,39.938L88.055,37.827C88.055,37.308 87.633,36.886 87.113,36.886L85.231,36.886L84.847,37.046L84.999,36.679L84.999,34.569C84.999,34.049 84.577,33.628 84.057,33.628L82.221,33.628L82.256,33.544L82.256,31.434C82.256,30.914 81.834,30.493 81.315,30.493L79.614,30.493L79.717,30.244L79.717,28.134C79.717,27.614 79.295,27.192 78.776,27.192L76.893,27.192L76.65,27.293L76.65,25.522C76.65,25.003 76.228,24.581 75.709,24.581L73.826,24.581C73.307,24.581 72.885,25.003 72.885,25.522L72.885,27.632C72.885,28.152 73.307,28.573 73.826,28.573L75.709,28.573L75.952,28.473L75.952,30.244C75.952,30.763 76.374,31.185 76.893,31.185L78.594,31.185Z" style="fill:white;"/>
            </g>
        </g>
    </g>
</svg>
