<?xml version="1.0" encoding="UTF-8" standalone="no"?>
<!DOCTYPE svg PUBLIC "-//W3C//DTD SVG 1.1//EN" "http://www.w3.org/Graphics/SVG/1.1/DTD/svg11.dtd">
<svg width="100%" height="100%" viewBox="0 0 54 54" version="1.1" xmlns="http://www.w3.org/2000/svg" xmlns:xlink="http://www.w3.org/1999/xlink" xml:space="preserve" xmlns:serif="http://www.serif.com/" style="fill-rule:evenodd;clip-rule:evenodd;stroke-linejoin:round;stroke-miterlimit:2;">
    <g transform="matrix(1,0,0,1,-129,-1)">
        <g id="Artboard4" transform="matrix(1,0,0,1,-140.623,1.42088)">
            <rect x="270" y="0" width="53" height="53" style="fill:none;"/>
            <g id="swift-bird-shape-svgrepo-com" transform="matrix(0.092645,0,0,0.092645,296.5,26.5)">
                <g transform="matrix(1,0,0,1,-286.038,-286.038)">
                    <clipPath id="_clip1">
                        <rect x="0" y="0" width="572.076" height="572.076"/>
                    </clipPath>
                    <g clip-path="url(#_clip1)">
                        <g>
                            <g>
                                <path d="M551.996,397.247C549.4,392.102 544.652,390.234 539.51,389.047C530.229,386.901 520.877,385.053 511.289,385.693C506.475,386.016 501.701,386.974 496.912,387.639C496.34,387.717 495.769,387.766 494.65,387.892C495.703,386.187 496.47,384.881 497.291,383.609C501.717,376.758 503.586,369.117 504.566,361.124C507.332,338.48 504.878,316.145 500.884,293.878C498.036,278.01 495.952,261.98 492.39,246.28C488.783,230.392 484.144,214.705 479.302,199.135C473.109,179.217 466.886,159.261 459.49,139.771C453.496,123.981 445.992,108.742 438.711,93.475C432.848,81.186 426.393,69.175 420.057,57.118C415.161,47.804 410.036,38.607 405.01,29.362C404.666,28.73 404.264,28.134 403.887,27.518C403.533,27.457 403.182,27.396 402.826,27.33C400.896,32.944 398.678,38.481 397.09,44.188C391.26,65.184 392.283,86.273 396.209,107.477C401.418,135.613 406.363,163.797 411.199,191.998C414.638,212.063 417.97,232.121 423.724,251.717C427.208,263.594 426.902,275.467 422.357,287.294C417.681,299.466 413.3,311.741 405.556,322.378C403.214,325.593 400.011,328.172 397.261,331.098C390.96,337.793 384.548,344.386 378.464,351.274C373.282,357.136 368.39,363.269 363.585,369.45C361.855,371.674 360.056,372.722 357.269,372.258C348.308,370.76 339.263,369.679 330.39,367.79C318.472,365.252 306.509,362.682 294.872,359.12C264.473,349.817 234.44,340.849 204.33,330.653C195.24,327.577 187.006,321.959 178.377,317.515C177.471,317.05 176.541,316.638 175.187,315.994C174.457,320.898 176.746,324.48 179.01,327.916C296.266,371.033 334.846,398.402 145.101,420.879C133.449,422.258 134.901,427.994 133.216,429.765C135.37,429.549 137.532,429.427 139.671,429.105C155.399,426.726 171.07,423.878 186.856,422.022C203.465,420.068 220.181,419.019 236.86,417.635C246.934,416.799 257.076,415.032 267.085,415.563C279.814,416.241 292.451,418.75 305.102,420.634C309.594,421.303 314.014,422.454 318.465,423.392C321.748,424.086 322.932,425.808 321.848,428.946C317.596,441.235 311.901,452.887 303.961,463.14C301.406,466.441 296.693,468.697 292.523,469.998C279.521,474.061 266.399,477.852 253.148,481.006C221.781,488.464 190.389,495.841 158.863,502.581C130.993,508.542 102.922,513.58 74.95,519.068C64.334,521.153 53.591,520.831 42.861,521.185C31.311,521.569 19.789,522.772 8.251,523.572C5.627,523.752 2.992,523.739 0.364,523.813C0.241,524.184 0.119,524.555 0.001,524.926C4.452,527.142 8.777,529.688 13.383,531.516C27.324,537.056 41.988,539.622 56.827,541.079C95.465,544.873 134.217,545.24 172.993,544.326C204.417,543.584 235.768,541.658 266.874,536.958C288.22,533.73 309.448,529.699 330.815,526.64C350.456,523.828 370.102,521.209 389.458,516.705C404.839,513.127 418.372,505.807 431.31,497.121C434.824,494.763 438.331,492.4 441.759,489.92C446.109,486.77 449.103,482.661 449.904,477.227C450.177,475.374 450.996,474.612 452.922,474.567C457.668,474.453 462.404,474.082 467.154,473.939C468.476,473.898 469.687,473.792 470.736,473.404C504.795,470.149 536.978,451.633 554.613,422.469C558.129,418.52 562.988,416.394 567.281,413.493C568.859,412.424 570.301,411.147 572.078,409.748C568.353,406.202 564.637,403.55 560.174,402.583C556.602,401.813 553.68,400.588 551.996,397.247Z" style="fill:white;fill-rule:nonzero;"/>
                            </g>
                        </g>
                    </g>
                </g>
            </g>
        </g>
    </g>
</svg>
